<?xml version="1.0" encoding="utf-8"?>
<!-- Generator: Adobe Illustrator 26.3.1, SVG Export Plug-In . SVG Version: 6.00 Build 0)  -->
<svg version="1.1" id="Lager_1" xmlns="http://www.w3.org/2000/svg" xmlns:xlink="http://www.w3.org/1999/xlink" x="0px" y="0px"
	 viewBox="0 0 250.9 250.9" style="enable-background:new 0 0 250.9 250.9;" xml:space="preserve">
<style type="text/css">
	.st0{clip-path:url(#SVGID_00000178197076123372509170000000130704419875298696_);}
	.st1{fill:#46604A;}
	.st2{fill:#1D1D1B;}
</style>
<g>
	<g>
		<g>
			<defs>
				<rect id="SVGID_1_" x="13" y="0" width="225" height="250.4"/>
			</defs>
			<clipPath id="SVGID_00000074435821520832556370000001092345859683457685_">
				<use xlink:href="#SVGID_1_"  style="overflow:visible;"/>
			</clipPath>
			<g style="clip-path:url(#SVGID_00000074435821520832556370000001092345859683457685_);">
				<path class="st1" d="M131.8,129v1.2h1v-0.6h0.3h-0.3v-0.6L131.8,129z"/>
				<path class="st2" d="M148,25.9c4.7-1,8.8-3.8,11.5-7.8c4.6-7.3,2.3-16.4,2.2-16.8c-0.1-0.5-0.4-0.8-0.8-1.1
					c-0.4-0.3-0.9-0.3-1.4-0.2c-0.4,0.1-9.4,2.2-13.8,9.7c-2.5,4.3-3,9.4-1.3,15.2l-7.3,12.9c0.8-4,0.1-8.1-1.9-11.7
					c-4.2-7.5-13.3-9.8-13.7-9.9c-0.5-0.1-0.9-0.1-1.4,0.2c-0.4,0.3-0.7,0.6-0.8,1c-0.1,0.4-2.5,9.4,2,16.8
					c2.6,4.3,6.9,7.1,12.8,8.4h0.1l-10.7,18.6c-0.6-3.4-2.1-6.5-4.6-8.9c-6.1-6.1-15.3-6-15.7-6c-0.5,0-0.9,0.2-1.2,0.5
					c-0.3,0.3-0.5,0.8-0.5,1.3c0,0.4,0,9.8,6.2,15.7c3.2,2.9,7.3,4.6,11.6,4.7l-6.7,11.7l-0.1,0.3l-9,41.2L94,111.1L83.4,54.4
					c4.4-1.1,8.3-3.8,10.9-7.5l0.1,0.1l0.9-1.6c0.1-0.2,0.3-0.5,0.4-0.7c0.1-0.3,0.2-0.3,0.3-0.5c3.1-5.5,6.9-12.4,5.5-18.7
					C99.2,15,90.7,11,83.3,7.5c-0.2-0.1-0.5-0.1-0.7-0.1s-0.5,0.1-0.7,0.1c-0.2,0.1-0.5,0.2-0.6,0.4c-0.2,0.2-0.3,0.4-0.4,0.6
					L80.7,9l-6.4-3.1c-0.3-0.1-0.7-0.2-1.1-0.1c-0.4,0.1-0.7,0.3-1,0.5l-4.9,5.1l-0.6-0.6c-0.2-0.2-0.4-0.3-0.6-0.4
					c-0.2-0.1-0.5-0.1-0.7-0.1l0,0c-0.3,0-0.5,0.1-0.7,0.1c-0.2,0.1-0.5,0.3-0.6,0.4C58.4,16.7,52,23.5,53.6,34.1
					c1,6.4,7,11.4,11.9,15.5l0.9,0.7l1.6,1.2l0.1-0.1c3.2,2.1,6.9,3.3,10.7,3.3c0.4,0,0.7,0,1.1,0l9.5,50.9l-3.1-3.3L72.5,94
					c4.5-4,6.8-8.5,7-13.5c0.3-8.6-6.2-15.3-6.5-15.6c-0.3-0.3-0.8-0.5-1.3-0.5c-0.5,0-0.9,0.2-1.3,0.5c-0.3,0.3-7,6.7-7.1,15.3
					c0,3.7,1.2,7.3,3.4,10.3L39.2,73.5c-0.1-0.1-0.3-0.1-0.4-0.1c-1.1-5.7-3.6-9.9-7.7-12.6c-7.2-4.7-16.3-2.7-16.6-2.6
					c-0.5,0.1-0.8,0.4-1.1,0.8c-0.3,0.4-0.3,0.9-0.3,1.4c0.1,0.4,2,9.6,9.3,14.1c2.7,1.7,5.9,2.5,9,2.5c1.8,0,3.6-0.3,5.4-0.7
					c0.1,0.1,0.3,0.3,0.5,0.4l12.6,7.7c-3-0.7-6.2-0.5-9.1,0.5c-8.1,2.9-12,11.3-12.2,11.7c-0.2,0.5-0.3,1-0.1,1.4
					c0.1,0.5,0.5,0.8,0.9,1c3.3,1.4,6.7,2.2,10.3,2.3c2.2,0,4.4-0.4,6.5-1.2c4.7-1.8,8.2-5.5,10.5-11.1c0.1-0.1,0.1-0.2,0.1-0.3
					l27.1,16.6l6.6,7.4l2.8,15h-7.2c-0.5,0-1,0.2-1.3,0.5c-0.3,0.3-0.5,0.8-0.5,1.3v19.8c0,2.5,0,4-0.4,4.6s-2,1.1-4.2,1.9
					c-11.8,4.1-20.8,15.9-20.9,27.4c0,2.3-0.1,4.2-0.1,5.8c-0.1,0.3-0.2,0.5-0.2,0.8c0,0.3,0.1,0.5,0.1,0.7c0,2.5-0.1,4.3-0.1,5.6
					c-0.1,3.9-0.1,3.9,0,10.3c0,2.2,0.1,5.1,0.1,9.3c0.2,13.8,11.6,26.7,25.3,28.8c4.2,0.7,8.5,0.9,12.8,0.8h2.3
					c5.1,0.1,10.2-0.1,15.2-0.8c13.8-2.1,25.2-15,25.3-28.8l0.1-9.3c0.1-6.4,0.1-6.4,0-10.3c0-1.3,0-3-0.1-5.6
					c0.1-0.2,0.1-0.5,0.1-0.7c0-0.3-0.1-0.5-0.1-0.8c0-1.6,0-3.6-0.1-5.9c-0.1-11.6-9.1-23.3-20.9-27.4c-2.3-0.8-3.8-1.4-4.2-1.9
					c-0.4-0.6-0.4-2.1-0.4-4.6v-19.8c0-0.5-0.2-1-0.5-1.3c-0.3-0.3-0.8-0.5-1.3-0.5h-6.5l3.8-17.4c3,2,6.4,3,10,3.1
					c1.1,0,2.2-0.1,3.3-0.3c8.5-1.8,13.3-9.7,13.5-10c0.3-0.4,0.3-0.9,0.2-1.4c-0.1-0.5-0.4-0.8-0.8-1.1c-0.3-0.2-8.1-5.3-16.5-3.3
					c-3,0.7-5.8,2.3-8,4.5l4.4-19.9l14.7-25.6c3.7,3.9,7.9,6,12.5,6.1h0.7c8.3,0,14.7-6.1,14.9-6.4c0.3-0.3,0.5-0.8,0.5-1.3
					c0-0.5-0.2-0.9-0.5-1.3c-0.3-0.3-6.6-7.2-15.2-7.2H143c-2.9,0-5.8,0.8-8.3,2.3l12.8-22.3C147.9,26.2,147.9,26.1,148,25.9
					L148,25.9z M133.2,38.6c-3.6-0.9-6.7-3.1-8.7-6.2c-2.5-4.2-2.3-9.3-2-12c2.5,1,7.1,3.3,9.5,7.5
					C133.8,31.2,134.1,35.1,133.2,38.6L133.2,38.6z M105.3,50.2c2.7,0.3,7.7,1.2,11.1,4.8c2.5,2.7,3.9,6.3,3.9,10
					c-3.7,0.1-7.3-1.2-10.1-3.7C106.7,57.9,105.6,52.9,105.3,50.2L105.3,50.2z M83.4,11.6c7.4,3.6,12.7,7,14.4,14.6
					c0.3,2,0.2,3.9-0.4,5.8c-0.8-4-2.7-7.5-5.7-10.3c-2.2-1.9-4.8-3.4-7.5-4.4c-0.6-0.3-1.2-0.5-1.8-0.8l-1-0.5L83.4,11.6z
					 M73.8,9.9l5.3,2.5l-0.9,2.1l-2.7-1.2c-0.3-0.1-0.7-0.2-1.1-0.1c-0.4,0.1-0.7,0.3-1,0.5l-2.1,2.2l-1.6-1.7L73.8,9.9z M57.1,33.6
					c-1.2-7.6,2.5-12.7,8.2-18.8l3.4,3.6l-0.7,0.7l-1.4,1.4c-2.2,2-4,4.2-5.4,6.8c-1.8,3.7-2.3,7.8-1.6,11.8l0,0
					C58.4,37.6,57.5,35.7,57.1,33.6L57.1,33.6z M69.8,48.5c-0.5-0.3-0.8-0.6-1.2-0.9l0,0c-2.6-2.2-4.4-5.3-5.1-8.6
					c-0.7-3.4-0.3-6.9,1.2-10c1.2-2.2,2.9-4.2,4.7-5.9l1.4-1.5l4.4-4.6l5.7,2.7l1.9,0.8c2.3,0.8,4.6,2.1,6.5,3.7
					c2.5,2.3,4.1,5.4,4.6,8.7s0,6.8-1.6,9.8l-0.4,0.7c-0.2,0.3-0.4,0.7-0.6,1c-1.2,1.7-2.6,3.1-4.4,4.2c-1.7,1.1-3.6,1.9-5.6,2.3
					c-2,0.4-4,0.3-6-0.1C73.4,50.5,71.5,49.6,69.8,48.5L69.8,48.5z M71.5,68.9c1.7,2.1,4.4,6.5,4.2,11.4c-0.3,3.7-1.9,7.2-4.6,9.8
					c-2.6-2.7-4.1-6.2-4.2-9.9C66.8,75.3,69.7,71.1,71.5,68.9z M24.3,71.4c-4.2-2.6-6.2-7.3-7.2-9.8c2.7-0.3,7.8-0.3,11.9,2.5
					c3.1,2.1,5.1,5.4,5.9,9C31.3,73.9,27.5,73.4,24.3,71.4L24.3,71.4z M45,96.8c-4.6,1.8-9.6,0.6-12.1-0.3c1.4-2.3,4.5-6.4,9.1-8
					c3.5-1.1,7.3-0.8,10.7,0.8C51.2,92.7,48.4,95.3,45,96.8L45,96.8z M120.4,100.9c4.7-1.2,9.5,0.7,12,1.9
					c-1.7,2.1-5.3,5.8-10.1,6.8c-3.6,0.7-7.4-0.1-10.5-2.1C113.7,104.2,116.9,101.9,120.4,100.9L120.4,100.9z M80.8,159.3
					c6.6-2.3,7.1-3.1,7.1-9.9v-17.9H94l3.4,18.1l-1.6,7.1l-5.3,31.5H62.3c0-1.4,0-2.9,0.1-4.7C62.5,173.2,70.4,163,80.8,159.3
					L80.8,159.3z M104.5,188.1H94.2l4.9-29.1L104.5,188.1z M97.7,131.5h3.6l-2,8.8L97.7,131.5z M136.2,206.4l-0.1,9.3
					c-0.1,12-10.1,23.3-22.2,25.2c-4.9,0.7-9.8,1-14.7,0.8c-4.9,0.1-9.8-0.1-14.7-0.8c-12.1-1.9-22-13.2-22.2-25.2
					c-0.1-4.2-0.1-7.1-0.1-9.3c-0.1-6.3-0.1-6.3,0-10.1c0-1.1,0-2.5,0.1-4.5h27.6l-5,29.8c-0.1,0.3-0.1,0.5,0,0.7
					c0.1,0.3,0.1,0.5,0.3,0.7s0.3,0.4,0.5,0.5c0.2,0.1,0.5,0.2,0.7,0.3h0.3c0.5,0,0.8-0.1,1.2-0.5c0.3-0.3,0.6-0.7,0.7-1.1l5.1-30.4
					h11.6l7.3,39.4c0.1,0.4,0.3,0.8,0.7,1.1c0.3,0.3,0.7,0.5,1.2,0.5c0.1,0,0.3,0,0.3,0c0.5-0.1,0.9-0.4,1.2-0.8
					c0.3-0.4,0.4-0.9,0.3-1.4l-7.2-38.7H136c0,2,0.1,3.4,0.1,4.5C136.3,200.1,136.3,200.1,136.2,206.4L136.2,206.4z M110.5,131.5
					v17.9c0,7,0.5,7.7,7.1,9.9c10.3,3.6,18.3,13.9,18.3,24c0,1.8,0,3.3,0.1,4.7h-27.8l-7.2-38.4l4-18.1L110.5,131.5z M97.1,127.8
					l-1.8-9.8l7.3,8.1l-0.3,1.6H97.1z M143.5,50.1c4.9,0,9.1,3,11.2,4.7c-2.1,1.6-6.4,4.4-11.4,4.1c-3.7-0.3-7.2-2-9.7-4.7
					C136.2,51.6,139.8,50.1,143.5,50.1L143.5,50.1z M149,11.6c2.5-4.2,7.1-6.4,9.6-7.3c0.3,2.7,0.5,7.8-2.1,12
					c-2.1,3.1-5.2,5.3-8.8,6.1C146.6,18.7,147.1,14.9,149,11.6L149,11.6z"/>
				<path class="st2" d="M236.5,181.2c-0.4-0.1-9.4-2.1-16.6,2.6c-4,2.7-6.6,6.9-7.7,12.6c-0.1,0.1-0.3,0.1-0.3,0.2l-27.5,16.9
					c2.2-3,3.4-6.6,3.4-10.3c0-8.6-6.8-15.1-7.1-15.3c-0.3-0.3-0.8-0.5-1.3-0.5c-0.5,0-0.9,0.2-1.3,0.5c-0.3,0.3-6.8,7-6.5,15.6
					c0.2,4.9,2.5,9.5,7,13.5l-4,2.5l-9.9,6.1l-19.5,21.8c-0.3,0.3-0.4,0.6-0.5,1c-0.1,0.3,0,0.7,0.1,1c0.1,0.3,0.4,0.6,0.7,0.8
					c0.3,0.2,0.7,0.3,1,0.3c0.3,0,0.5-0.1,0.7-0.1c0.3-0.1,0.5-0.3,0.6-0.5l19.1-21.4l27.1-16.6c0,0.1,0,0.2,0.1,0.3
					c2.3,5.6,5.9,9.4,10.5,11.1c2.1,0.8,4.3,1.2,6.5,1.2c3.5-0.1,7-0.8,10.3-2.3c0.2-0.1,0.4-0.3,0.6-0.5c0.1-0.2,0.3-0.4,0.4-0.6
					c0.1-0.3,0.1-0.5,0.1-0.7s-0.1-0.5-0.2-0.7c-0.2-0.3-4-8.8-12.2-11.7c-2.9-1-6.1-1.2-9.1-0.5l12.6-7.7c0.2-0.1,0.3-0.3,0.5-0.4
					c1.8,0.5,3.6,0.7,5.4,0.7c3.2,0.1,6.3-0.8,9-2.5c7.3-4.6,9.2-13.7,9.3-14.1c0.1-0.5,0-1-0.3-1.4
					C237.4,181.6,237,181.4,236.5,181.2L236.5,181.2z M175.3,203.3c-0.2-4.9,2.5-9.2,4.2-11.4c1.8,2.1,4.6,6.3,4.6,11.2
					c-0.1,3.7-1.6,7.3-4.2,9.9C177.2,210.6,175.6,207.1,175.3,203.3L175.3,203.3z M209,211.4c4.6,1.6,7.7,5.7,9.1,8
					c-2.5,0.8-7.5,2-12.1,0.3c-3.4-1.4-6.2-4.1-7.7-7.5C201.6,210.6,205.6,210.2,209,211.4L209,211.4z M226.8,194.4
					c-3.2,1.9-7,2.5-10.6,1.6c0.7-3.6,2.8-6.9,5.9-9c4.1-2.7,9.2-2.7,11.9-2.4C233,187.1,230.9,191.8,226.8,194.4z"/>
			</g>
		</g>
	</g>
</g>
</svg>
