<svg width="166" height="250" viewBox="0 0 166 250" fill="none" xmlns="http://www.w3.org/2000/svg">
<path d="M155.342 40.5638L125.761 40.6949L125.568 39.3145C124.245 29.8218 119.787 21.0455 112.904 14.384C112.615 14.0941 112.311 13.8249 112.015 13.5627L108.341 10.2013H155.342V40.5638ZM155.342 124.811L152.35 119.89C148.76 114.072 144.508 108.692 139.679 103.856L139.624 103.801C129.615 92.7576 118.833 85.9935 107.582 83.6813L104.301 82.9911L106.852 80.8307C117.413 71.9201 123.679 62.2847 125.465 52.1869L125.699 50.8548L155.342 50.7168V124.811ZM155.342 239.738H118.695L123.555 236.729C129.433 233.069 134.835 228.695 139.638 223.705C144.475 218.729 148.739 213.226 152.35 207.298L155.369 202.28L155.342 239.738ZM84.4887 237.585L89.8451 233.706C93.9621 230.717 97.8077 227.37 101.337 223.705C115.889 208.589 124.038 190.726 125.554 170.607L125.665 169.171H125.844V158.134L125.616 157.127C124.238 136.614 116.103 118.682 101.357 103.829C98.4519 100.614 95.2987 97.6318 91.927 94.911L87.0462 90.9768L93.2505 92.0329C107.727 94.5176 120.536 101.282 131.393 112.153C145.477 126.254 152.619 143.509 152.619 163.442C152.619 183.376 145.456 200.859 131.366 215.374C119.97 227.259 106.397 234.41 91.0308 236.632L84.4887 237.585ZM47.0079 237.109H19.5711L20.5638 234.831C28.4477 216.583 41.1366 200.824 57.2737 189.238C73.4109 177.653 92.3895 170.676 112.181 169.054L114.111 168.902L113.932 170.827C112.367 187.682 105.37 202.674 93.0644 215.374C80.3594 228.619 64.8831 235.928 47.0699 237.109H47.0079ZM11.0299 230.779V168.66H72.5351L66.5652 171.732C43.9706 183.434 25.6213 201.951 14.1113 224.664L11.0299 230.779ZM11.0299 97.03L14.1113 103.138C25.4124 125.424 43.2969 143.682 65.3312 155.429L71.1219 158.493H11.0299V97.03ZM11.0299 12.0442H42.9199C52.6745 12.0442 60.9813 15.2675 67.6061 21.6312C74.2309 27.995 77.6226 36.2154 77.6226 46.0026C77.6226 55.7898 74.2447 63.8791 67.5854 70.0082C61.8354 75.3273 54.467 78.5578 46.6632 79.1811H11.0299V12.0442ZM93.0644 112.18C105.473 124.645 112.525 139.637 113.959 156.754L114.104 158.521H110.016C90.6861 156.518 72.2328 149.417 56.5387 137.943C40.8445 126.469 28.4712 111.031 20.681 93.2062L19.6814 90.9216H41.7963C61.7052 90.9216 78.9462 98.0791 93.0299 112.18H93.0644ZM74.4998 79.188H70.5566L73.3554 76.4272C80.9385 68.8348 85.5779 60.7801 87.1083 52.3871L87.3496 51.0619L115.655 50.9307L115.303 52.8633C114.157 59.4787 110.835 65.5207 105.866 70.0289C100.116 75.348 92.7475 78.5785 84.9437 79.2018L74.4998 79.188ZM81.2073 12.0442C90.9963 12.0442 99.2687 15.2606 105.893 21.6312C110.752 26.2239 114.029 32.2413 115.255 38.8175L115.62 40.7363L87.4668 40.8674L87.2737 39.487C86.0047 30.1443 81.6942 21.4812 75.0099 14.8396L72.2938 12.0787L81.2073 12.0442ZM0 249.933H165.496V0H0V249.933Z" fill="#F9F4E8"/>
</svg>
