<?xml version="1.0" encoding="UTF-8"?>
<svg xmlns="http://www.w3.org/2000/svg" width="209" height="50" viewBox="0 0 209 50" fill="none">
  <g clip-path="url(#clip0)">
    <path d="M51.3608 29.8171C51.6116 29.8198 51.8604 29.7719 52.0924 29.6762C52.3243 29.5804 52.5347 29.4388 52.7108 29.2598C52.887 29.0808 53.0254 28.868 53.1177 28.6342C53.2101 28.4003 53.2545 28.1502 53.2483 27.8988C53.2483 26.8494 52.2016 26.0724 51.1148 26.0724H48.8269V29.7999L51.3608 29.8171ZM51.0748 23.7757C51.3184 23.7767 51.5597 23.728 51.7839 23.6325C52.0081 23.537 52.2106 23.3967 52.3789 23.2202C52.5473 23.0436 52.6779 22.8345 52.763 22.6056C52.8481 22.3768 52.8857 22.1329 52.8737 21.889C52.8827 21.6506 52.8422 21.413 52.7547 21.1912C52.6672 20.9694 52.5347 20.7683 52.3655 20.6005C52.1964 20.4328 51.9943 20.3022 51.7721 20.217C51.5499 20.1318 51.3124 20.0938 51.0748 20.1055H48.8355V23.7757H51.0748ZM46.1386 18.0095C46.1386 17.9038 46.1805 17.8024 46.2551 17.7277C46.3296 17.653 46.4307 17.611 46.5362 17.611H51.3265C53.8174 17.611 55.7422 19.2883 55.7422 21.4904C55.7422 23.1047 54.4237 24.3577 53.4399 24.8251C54.5496 25.1835 56.1597 26.3161 56.1597 28.2458C56.1597 30.5941 54.1578 32.2915 51.5839 32.2915H46.5219C46.4696 32.2919 46.4177 32.2819 46.3693 32.262C46.3209 32.2421 46.2769 32.2127 46.2399 32.1757C46.2029 32.1386 46.1737 32.0945 46.1538 32.046C46.134 31.9974 46.124 31.9454 46.1243 31.893L46.1386 18.0095Z" fill="#000000"></path>
    <path d="M62.1797 18.0095C62.1797 17.9038 62.2216 17.8024 62.2962 17.7277C62.3707 17.653 62.4718 17.611 62.5773 17.611H64.5163C64.6206 17.6145 64.7196 17.6577 64.7934 17.7317C64.8672 17.8056 64.9102 17.905 64.9138 18.0095V29.7655H70.2361C70.2885 29.7651 70.3405 29.7751 70.3891 29.795C70.4376 29.8148 70.4818 29.8441 70.519 29.8812C70.5562 29.9182 70.5858 29.9623 70.6059 30.0108C70.6261 30.0594 70.6364 30.1114 70.6364 30.164V31.8844C70.6364 31.937 70.6261 31.989 70.6059 32.0376C70.5858 32.0861 70.5562 32.1302 70.519 32.1672C70.4818 32.2043 70.4376 32.2336 70.3891 32.2534C70.3405 32.2733 70.2885 32.2833 70.2361 32.2829H62.5773C62.4718 32.2829 62.3707 32.2409 62.2962 32.1662C62.2216 32.0915 62.1797 31.9901 62.1797 31.8844V18.0095Z" fill="#000000"></path>
    <path d="M82.199 29.7769C83.1527 29.7815 84.0864 29.5018 84.8813 28.9734C85.6763 28.445 86.2968 27.6918 86.664 26.8092C87.0312 25.9267 87.1286 24.9547 86.9438 24.0165C86.7591 23.0784 86.3005 22.2164 85.6263 21.5401C84.9521 20.8637 84.0926 20.4034 83.157 20.2176C82.2214 20.0318 81.2518 20.1289 80.3713 20.4965C79.4909 20.8642 78.7392 21.4858 78.2117 22.2825C77.6842 23.0792 77.4047 24.0151 77.4087 24.9713C77.4169 26.2428 77.9241 27.4599 78.8206 28.3593C79.7171 29.2586 80.9308 29.7679 82.199 29.7769V29.7769ZM82.199 17.4016C83.6891 17.3971 85.1471 17.8358 86.3885 18.6621C87.6299 19.4885 88.599 20.6654 89.1731 22.044C89.7473 23.4227 89.9008 24.941 89.6141 26.4071C89.3274 27.8732 88.6134 29.2211 87.5626 30.2803C86.5117 31.3395 85.1711 32.0624 83.7104 32.3576C82.2497 32.6529 80.7344 32.5071 79.3563 31.9388C77.9782 31.3705 76.7992 30.4052 75.9684 29.1649C75.1376 27.9247 74.6923 26.4653 74.6889 24.9713C74.6848 23.9795 74.8759 22.9965 75.2514 22.0789C75.6268 21.1612 76.1792 20.3269 76.8769 19.6237C77.5746 18.9205 78.4038 18.3622 79.3171 17.9809C80.2303 17.5996 81.2097 17.4028 82.199 17.4016" fill="#000000"></path>
    <path d="M97.1362 17.7142C97.1463 17.6232 97.1914 17.5396 97.2618 17.4813C97.3323 17.423 97.4226 17.3944 97.5137 17.4017H97.8483C97.9212 17.3988 97.9934 17.417 98.0563 17.4541C98.1192 17.4912 98.1701 17.5457 98.2029 17.611L102.807 27.5118H102.867L107.472 17.611C107.502 17.5437 107.553 17.4875 107.616 17.4501C107.68 17.4126 107.753 17.3957 107.826 17.4017H108.161C108.252 17.3944 108.342 17.423 108.413 17.4813C108.483 17.5396 108.528 17.6232 108.539 17.7142L111.007 31.8099C111.027 31.8673 111.033 31.9289 111.023 31.9891C111.014 32.0493 110.989 32.1061 110.952 32.1542C110.914 32.2023 110.865 32.2401 110.809 32.2641C110.754 32.2882 110.693 32.2976 110.632 32.2916H108.727C108.637 32.2855 108.551 32.2524 108.481 32.1967C108.41 32.1409 108.357 32.0651 108.33 31.9791L107.094 24.028H107.031L103.371 32.2715C103.344 32.3433 103.296 32.4047 103.232 32.4466C103.168 32.4884 103.092 32.5085 103.016 32.5038H102.639C102.563 32.5054 102.489 32.4842 102.425 32.4427C102.362 32.4013 102.313 32.3416 102.284 32.2715L98.5804 24.028H98.5175L97.3049 31.9791C97.2845 32.0652 97.2366 32.1424 97.1684 32.1988C97.1003 32.2552 97.0157 32.2878 96.9274 32.2916H95.0456C94.9848 32.2959 94.9238 32.2856 94.8677 32.2616C94.8117 32.2375 94.7621 32.2004 94.7232 32.1533C94.6844 32.1061 94.6573 32.0504 94.6442 31.9907C94.6311 31.931 94.6325 31.869 94.6481 31.8099L97.1362 17.7142Z" fill="#000000"></path>
    <path d="M122.24 29.8171C122.49 29.8194 122.737 29.7715 122.968 29.6763C123.199 29.5811 123.408 29.4404 123.583 29.2626C123.759 29.0848 123.897 28.8735 123.989 28.6412C124.082 28.4089 124.127 28.1604 124.122 27.9103C124.122 26.8609 123.075 26.0838 121.989 26.0838H119.701V29.8113L122.24 29.8171ZM121.954 23.7757C122.198 23.7771 122.44 23.7287 122.664 23.6334C122.889 23.538 123.092 23.3978 123.26 23.2212C123.429 23.0446 123.56 22.8354 123.645 22.6063C123.73 22.3773 123.768 22.1332 123.756 21.889C123.765 21.6504 123.725 21.4125 123.637 21.1905C123.549 20.9685 123.416 20.7672 123.247 20.5994C123.077 20.4317 122.875 20.3011 122.652 20.2161C122.43 20.1311 122.192 20.0934 121.954 20.1055H119.712V23.7757H121.954ZM117.018 18.0095C117.018 17.9038 117.06 17.8024 117.135 17.7277C117.209 17.653 117.31 17.611 117.416 17.611H122.206C124.697 17.611 126.622 19.2883 126.622 21.4904C126.622 23.1047 125.303 24.3577 124.319 24.8251C125.429 25.1835 127.039 26.3161 127.039 28.2458C127.039 30.5941 125.037 32.2915 122.478 32.2915H117.416C117.363 32.2919 117.312 32.2819 117.263 32.262C117.215 32.2421 117.171 32.2127 117.134 32.1757C117.097 32.1386 117.068 32.0945 117.048 32.046C117.028 31.9974 117.018 31.9454 117.018 31.893V18.0095Z" fill="#000000"></path>
    <path d="M139.205 24.3003C139.76 24.2854 140.287 24.0537 140.674 23.6546C141.061 23.2555 141.277 22.7207 141.276 22.1642C141.262 21.6218 141.039 21.1061 140.652 20.7265C140.265 20.3469 139.746 20.1334 139.205 20.1313H135.796V24.3032L139.205 24.3003ZM133.054 18.0095C133.054 17.9038 133.095 17.8024 133.17 17.7277C133.245 17.6529 133.346 17.6109 133.451 17.6109H139.445C140.646 17.6033 141.801 18.0741 142.656 18.9199C143.511 19.7656 143.996 20.9171 144.004 22.1212C144.004 24.0509 142.729 25.6222 140.907 26.3562L143.767 31.6836C143.806 31.7452 143.827 31.8165 143.829 31.8896C143.83 31.9626 143.811 32.0346 143.774 32.0976C143.737 32.1605 143.683 32.212 143.619 32.2462C143.555 32.2804 143.482 32.2961 143.409 32.2915H141.213C141.145 32.2951 141.078 32.2795 141.019 32.2466C140.96 32.2136 140.911 32.1646 140.878 32.1051L138.096 26.5454H135.773V31.893C135.77 31.9977 135.728 32.0974 135.654 32.1716C135.58 32.2457 135.48 32.2886 135.376 32.2915H133.44C133.334 32.2915 133.233 32.2495 133.159 32.1748C133.084 32.1 133.042 31.9987 133.042 31.893L133.054 18.0095Z" fill="#000000"></path>
    <path d="M149.916 18.0095C149.919 17.9049 149.962 17.8056 150.036 17.7316C150.11 17.6576 150.209 17.6145 150.313 17.6109H152.315C152.42 17.6109 152.522 17.6529 152.596 17.7276C152.671 17.8024 152.712 17.9038 152.712 18.0095V26.5884C152.712 28.3719 153.925 29.7769 155.747 29.7769C157.569 29.7769 158.801 28.3719 158.801 26.6085V18.0066C158.801 17.9009 158.843 17.7995 158.918 17.7248C158.992 17.65 159.093 17.608 159.199 17.608H161.201C161.305 17.6116 161.404 17.6547 161.478 17.7287C161.552 17.8027 161.595 17.902 161.598 18.0066V26.7318C161.564 28.2588 160.936 29.7119 159.847 30.7799C158.757 31.8479 157.295 32.4459 155.771 32.4459C154.248 32.4459 152.785 31.8479 151.696 30.7799C150.607 29.7119 149.978 28.2588 149.944 26.7318L149.916 18.0095Z" fill="#000000"></path>
    <path d="M168.305 18.1127C168.304 18.0466 168.316 17.981 168.341 17.9198C168.366 17.8585 168.403 17.8029 168.45 17.7562C168.496 17.7094 168.552 17.6725 168.613 17.6475C168.674 17.6226 168.739 17.6102 168.805 17.6109H170.647C170.779 17.6124 170.906 17.6656 171 17.7594C171.094 17.8531 171.148 17.9798 171.15 18.1127V23.7756L176.421 17.8202C176.466 17.7564 176.526 17.7041 176.595 17.6678C176.664 17.6314 176.74 17.6119 176.819 17.6109H178.912C179.001 17.6075 179.088 17.6308 179.163 17.6778C179.238 17.7247 179.298 17.7932 179.334 17.8744C179.37 17.9556 179.381 18.0457 179.365 18.1331C179.35 18.2206 179.308 18.3014 179.247 18.365L173.784 24.5326L179.644 31.5575C179.695 31.6267 179.725 31.7086 179.731 31.7941C179.738 31.8796 179.721 31.9653 179.682 32.0415C179.642 32.1177 179.583 32.1814 179.51 32.2256C179.436 32.2698 179.352 32.2926 179.267 32.2915H176.979C176.909 32.2985 176.838 32.2888 176.773 32.2634C176.707 32.238 176.648 32.1976 176.601 32.1453L171.142 25.3928V31.7897C171.139 31.9226 171.086 32.0494 170.992 32.1431C170.898 32.2368 170.771 32.29 170.638 32.2915H168.797C168.731 32.2923 168.665 32.2798 168.604 32.2549C168.543 32.2299 168.488 32.193 168.441 32.1463C168.394 32.0995 168.357 32.0439 168.333 31.9827C168.308 31.9214 168.295 31.8558 168.296 31.7897L168.305 18.1127Z" fill="#000000"></path>
    <path d="M185.081 18.0095C185.081 17.9038 185.123 17.8024 185.197 17.7277C185.272 17.653 185.373 17.611 185.478 17.611H193.992C194.098 17.611 194.199 17.6529 194.274 17.7275C194.349 17.8022 194.392 17.9036 194.393 18.0095V19.7299C194.392 19.8359 194.349 19.9372 194.274 20.0119C194.199 20.0866 194.098 20.1285 193.992 20.1285H187.8V23.5692H192.968C193.073 23.5728 193.172 23.6159 193.245 23.6899C193.319 23.7639 193.362 23.8632 193.366 23.9678V25.7082C193.366 25.8139 193.324 25.9153 193.249 25.99C193.175 26.0648 193.074 26.1068 192.968 26.1068H187.8V29.7798H193.992C194.045 29.7794 194.097 29.7894 194.145 29.8093C194.194 29.8292 194.238 29.8585 194.275 29.8955C194.312 29.9325 194.342 29.9766 194.362 30.0252C194.382 30.0737 194.393 30.1258 194.393 30.1783V31.8987C194.393 31.9513 194.382 32.0034 194.362 32.0519C194.342 32.1005 194.312 32.1445 194.275 32.1816C194.238 32.2186 194.194 32.2479 194.145 32.2678C194.097 32.2876 194.045 32.2977 193.992 32.2973H185.49C185.384 32.2973 185.283 32.2553 185.209 32.1805C185.134 32.1058 185.092 32.0044 185.092 31.8987L185.081 18.0095Z" fill="#000000"></path>
    <path d="M202.486 20.1285H199.286C199.18 20.1285 199.079 20.0865 199.005 20.0117C198.93 19.937 198.888 19.8356 198.888 19.7299V18.0095C198.888 17.9038 198.93 17.8024 199.005 17.7277C199.079 17.653 199.18 17.611 199.286 17.611H208.437C208.543 17.611 208.644 17.653 208.719 17.7277C208.793 17.8024 208.835 17.9038 208.835 18.0095V19.7299C208.835 19.8356 208.793 19.937 208.719 20.0117C208.644 20.0865 208.543 20.1285 208.437 20.1285H205.223V31.8844C205.22 31.9892 205.177 32.0889 205.103 32.163C205.029 32.2371 204.93 32.2801 204.825 32.283H202.881C202.776 32.2801 202.677 32.2371 202.603 32.163C202.529 32.0889 202.486 31.9892 202.483 31.8844L202.486 20.1285Z" fill="#000000"></path>
    <path d="M31.0384 8.11446L25.1299 8.14027L25.0898 7.85354C24.8245 5.95411 23.9337 4.19806 22.5588 2.86444C22.5016 2.80709 22.4416 2.75261 22.3815 2.701L21.6494 2.02718H31.0384V8.11446ZM31.0384 24.9685L30.435 23.985C29.721 22.8212 28.8734 21.7453 27.9097 20.7793V20.7793C25.9078 18.5715 23.7543 17.2181 21.5064 16.7651L20.8515 16.6304L21.3634 16.1974C23.474 14.4168 24.7238 12.4871 25.0812 10.4628L25.127 10.1961L31.0498 10.1675L31.0384 24.9685ZM31.0384 47.9642H23.7171L24.6866 47.3592C25.8647 46.6313 26.9475 45.7586 27.9097 44.7614C28.8751 43.7654 29.7252 42.6631 30.4435 41.4755L31.047 40.472L31.0384 47.9642ZM16.8819 47.5313L17.9515 46.7571C18.7726 46.1581 19.5383 45.4864 20.2394 44.75C23.148 41.7278 24.7752 38.1552 25.0784 34.1266L25.1013 33.8399H25.1356V31.6321L25.0898 31.4314C24.8521 27.3963 23.1239 23.5948 20.2423 20.7679C19.6623 20.1252 19.0331 19.5289 18.3605 18.9844L17.3853 18.1959L18.6179 18.4081C21.9498 19.0274 24.9604 20.7964 27.1277 23.4082C29.295 26.0199 30.4823 29.3098 30.4836 32.7073C30.5037 34.6345 30.1394 36.5462 29.412 38.3302C28.6847 40.1142 27.6089 41.7344 26.2481 43.0955C24.1224 45.3919 21.2779 46.8912 18.186 47.3449L16.8819 47.5313ZM9.39188 47.4366H3.91233L4.10966 46.9807C5.68483 43.3302 8.21981 40.1774 11.4436 37.8593C14.6675 35.5412 18.459 34.145 22.413 33.8198L22.7962 33.7883L22.7619 34.1782C22.4582 37.549 20.9822 40.7054 18.5922 43.0955C16.2015 45.6768 12.9104 47.2347 9.40332 47.4452L9.39188 47.4366ZM2.19926 46.1722V33.7453H14.4968L13.3042 34.3617C8.79 36.703 5.12353 40.4071 2.82271 44.9507L2.19926 46.1722ZM2.19926 19.4145L2.81413 20.636C5.07001 25.0932 8.63968 28.7462 13.0382 31.0987L14.1822 31.7123H2.17066L2.19926 19.4145ZM2.19926 2.4114H8.57109C9.47897 2.38892 10.3823 2.54685 11.229 2.87607C12.0757 3.2053 12.849 3.69931 13.5044 4.32963C14.1593 4.95677 14.6758 5.71456 15.0206 6.55413C15.3654 7.3937 15.5309 8.29641 15.5063 9.20404C15.5063 11.1653 14.8314 12.7824 13.5044 14.0068C12.3574 15.0782 10.883 15.7299 9.32038 15.8562H2.19926V2.4114ZM18.5893 22.451C21.0114 24.814 22.4943 27.9791 22.7619 31.3568L22.7905 31.7123H21.9725C18.1117 31.312 14.4259 29.8922 11.2908 27.5978C8.15581 25.3034 5.68378 22.2165 4.12682 18.6518L3.92663 18.1959H8.35374C10.2587 18.1703 12.1489 18.5345 13.9088 19.2661C15.6687 19.9977 17.2613 21.0814 18.5893 22.451V22.451ZM14.8886 15.8562H14.0993L14.6712 15.2999C16.187 13.7889 17.1136 12.1688 17.4196 10.4915L17.4654 10.2248L23.1222 10.199L23.0507 10.5861C22.8235 11.9119 22.16 13.1232 21.1661 14.0268C20.0178 15.0925 18.5448 15.7389 16.9849 15.8619L14.8886 15.8562ZM16.227 2.42287C17.1349 2.40055 18.0382 2.55855 18.8849 2.88776C19.7315 3.21698 20.5049 3.71091 21.1603 4.34109C22.1313 5.26026 22.7853 6.4653 23.0278 7.78186L23.1022 8.16607L17.4768 8.19188L17.4396 7.90515C17.19 6.02863 16.3282 4.28759 14.9887 2.95332L14.4453 2.39993L16.227 2.42287ZM0 50.0201H33.0575V0H0V50.0201Z" fill="#000000"></path>
  </g>
  <defs>
    <clipPath id="clip0">
      <rect width="208.824" height="50" fill="white"></rect>
    </clipPath>
  </defs>
</svg>
