<?xml version="1.0" encoding="UTF-8"?>
<!-- Generator: Adobe Illustrator 28.0.0, SVG Export Plug-In . SVG Version: 6.00 Build 0)  -->
<svg xmlns="http://www.w3.org/2000/svg" xmlns:xlink="http://www.w3.org/1999/xlink" version="1.1" id="Lager_1" x="0px" y="0px" viewBox="0 0 500 500" style="enable-background:new 0 0 500 500;" xml:space="preserve">
<style type="text/css">
	.st0{fill:#FFFFFF;}
</style>
<path d="M196.4,438.6c10.9,15.1,9.2,17.4-7.3,33.2c-1.9-1-3.9-2.1-6.9-3.6c3.9-3.5,7.6-6.6,10.9-10.1c4.7-4.9,4.6-7.5-0.2-12.3  c-18.7-18.3-37.4-36.4-56.1-54.6c-8.3-8.1-16.6-16.3-25-24.4c-5.8-5.7-8.3-5.6-14.1,0c-3.9,3.8-8.1,7.4-12.8,11.7  c-1-1.4-2-2.7-3.2-4.5c5.2-5.3,10.3-10.8,15.7-15.9c4.4-4.1,9.9-3.7,15.4,0.6c3,2.3,5.8,4.9,8.4,7.1c14.1-18,31.1-32.9,46.8-48.9  c0.8-0.8,1.8-1.7,2.8-2c9.8-3.4,15.2-11.2,20.7-19.3c9.3-13.8,22.4-22,39-24.2c6.1-0.8,9.5-3.6,10.9-9.6c1.2-5,3-9.8,5-14.5  c3.4-7.7,3.8-15.4,1.7-23.4c-2.8-10.6-5.6-21.1-8.5-31.7c-1.5-5.6-4.1-7.3-9.9-6.3c-49.6,8.4-89.9-8.4-120.7-46.9  C84.7,108.5,77.6,73.1,85.3,34.7c1-5.1,3.8-7.6,8.8-8.8c69.2-15.7,139.3,31.6,150.6,101.6c2.6,16,2.3,31.7-0.8,47.5  c-0.7,3.7-0.3,7.9,0.7,11.6c3.2,11.4,7,22.7,11.3,34.2c5-12.9,17.4-22.2,15.8-38c-1-10-1.5-20.3,0-30.2c7.1-45.9,52-78.2,97.9-71.1  c12.9,2,12.9,2.5,14.8,15.5c6.3,44.1-22.9,86.8-63.2,99.9c-0.9,0.3-2,1-2.8,0.8c-2-0.5-4.8-0.9-5.5-2.3c-1.5-3,1.4-4,3.6-4.5  c10.6-2.7,20.4-7.1,29-13.8c17.7-13.6,27.1-32.1,30.6-53.6c1.5-9.2,0.5-18.8,0.2-28.3c-0.1-4-3.4-5.8-7.1-6.4  c-22.6-3.6-42.9,2-60.9,15.8c-19.7,15.2-30.1,35.4-30.9,60.4c0,2.5-0.6,5-0.4,7.4c0.2,1.6,1.3,3.2,2,4.7c1.4-0.8,3.2-1.2,4.2-2.3  c12.3-14,24.2-28.3,36.7-42c4.8-5.3,10.5-9.7,16.1-14.1c1.3-1,4.4-1.6,5.4-0.8c2.4,2,1.2,4.4-0.9,6.3c-4.9,4.4-9.9,8.9-14.8,13.4  c-33.9,31.7-58,69.7-73.2,113.5c-2,5.8-4.2,11.5-6.6,18c15.6,3.9,29.2,10.6,41.2,21c8.4-8.8,16.5-17.1,24.5-25.5  c4.7-4.9,9.3-10,14.1-14.8c10.1-9.9,19.2-11,31.5-4c6.3,3.6,7,3.5,11.9-1.6c2.6-2.6,5.1-5.2,7.8-7.8c11-10.4,25.5-11.4,36-2.4  c9.4,8.1,10.8,24,2.5,35.5c-6.4,8.9-13.3,17.4-20,26.1c-24.4,31.7-48.9,63.4-73.2,95.2c-8.1,10.7-19.3,15.1-32,17.2  c-21.4,3.5-42.8,7.3-64.3,10.9c-12.9,2.1-21.6,10.1-29.4,19.6L196.4,438.6z M190.8,434.7c1.8-2.2,3.3-4.2,5-6  c8.4-9.2,18.9-15.2,31.1-17.4c20.2-3.7,40.4-7.2,60.7-10c13.6-1.9,24.5-6.9,32.2-18.8c5.1-7.9,11.5-15,17.3-22.5  c23.3-30.2,46.7-60.5,69.9-90.8c4.7-6.2,8.1-13.3,6.6-21.2c-1.4-7.2-7-10.8-13.9-12.7c-7.9-2.2-14,1.1-19.2,6.5  c-17.6,18.1-35,36.4-52.5,54.6c-3.8,3.9-7.3,8.1-11.1,12.2c0.8,1,1.2,1.7,1.8,2.3c17.3,19.2,4.6,41.7-16.1,44.6  c-16.2,2.2-32.5,4.5-48.7,6.7c-6.1,0.8-12.2,1.7-18.3,2.1c-1.6,0.1-4.4-1.1-4.9-2.4c-1.1-3.1,1.8-3.6,4.1-4.2c0.3,0,0.6-0.2,1-0.3  c8.4-1.1,16.8-2.1,25.1-3.2c14.3-1.9,28.6-3.7,42.8-6.1c13-2.2,19.6-14.7,14.5-26.3c-4-9-11.7-11.6-20.8-11.5  c-31.4,0.6-62.8,1.2-94.2,1.9c-15.1,0.3-28.1,5.7-38.7,16.6c-11.5,11.8-22.9,23.6-34.3,35.5c-1.8,1.9-3.3,4-5,6.1  c21.8,21.3,43.2,42.2,65.6,64.1V434.7z M237.3,165.1c0.7-0.2,1.3-0.3,2-0.5c0-7.3,0.4-14.6-0.1-21.8s-1.4-14.6-3.1-21.6  c-14.9-62-75.5-100.5-135.6-89.2c-6.2,1.2-8.6,3.4-9.6,9.6c-2.6,16.6-2.3,33,2,49.3c16.2,62.6,71.9,94.3,126.5,89.6  c4.5-0.4,8.9-1.8,13.6-2.7c-0.8-2.2-1.2-3.6-1.8-5c-1-2.3-2-4.6-3.1-6.8c-11.8-23.8-27.9-44.3-47.3-62.3c-1.9-1.7-4.6-3.4-1.7-6.5  c2.3-2.4,4.1-1,5.8,0.8c16.1,16.8,32.3,33.4,43.9,53.9c2.6,4.5,5.6,8.8,8.5,13.1L237.3,165.1z M192.3,305.6c25.9-0.6,50.9-1,76-1.8  c5.7-0.2,9.9-3.3,12-8.8C256.1,267.4,212.2,272.3,192.3,305.6L192.3,305.6z M357.6,255.5c-7.4-8.5-17.6-9.9-24.7-2.9  c-13.2,13.1-26.1,26.5-38.9,39.9c-3.6,3.7-2.3,8.7,2.5,10.8c5.1,2.3,14.9,0.5,19-3.7c10.7-11.1,21.4-22.2,32.1-33.3  C351,262.7,354.3,259.1,357.6,255.5L357.6,255.5z"></path>
<path class="st0" d="M190.8,434.7c-22.4-21.9-43.8-42.8-65.6-64.1c1.7-2.1,3.2-4.3,5-6.1c11.4-11.9,22.8-23.7,34.3-35.5  c10.6-10.9,23.6-16.3,38.7-16.6c31.4-0.7,62.8-1.3,94.2-1.9c9.1-0.2,16.8,2.5,20.8,11.5c5.1,11.5-1.5,24-14.5,26.3  c-14.2,2.4-28.5,4.1-42.8,6.1c-8.4,1.1-16.8,2.1-25.1,3.2c-0.3,0-0.6,0.2-1,0.3c-2.2,0.6-5.2,1-4.1,4.2c0.5,1.3,3.3,2.5,4.9,2.4  c6.1-0.4,12.2-1.2,18.3-2.1c16.2-2.2,32.5-4.5,48.7-6.7c20.7-2.9,33.4-25.4,16.1-44.6c-0.5-0.6-1-1.3-1.8-2.3  c3.7-4.1,7.3-8.2,11.1-12.2c17.5-18.2,34.9-36.5,52.5-54.6c5.2-5.4,11.3-8.7,19.2-6.5c6.9,1.9,12.5,5.5,13.9,12.7  c1.5,7.9-1.9,15-6.6,21.2c-23.2,30.3-46.6,60.5-69.9,90.8c-5.8,7.5-12.1,14.6-17.3,22.5c-7.7,11.9-18.7,16.9-32.2,18.8  c-20.3,2.8-40.5,6.4-60.7,10c-12.2,2.2-22.7,8.1-31.1,17.4c-1.7,1.8-3.2,3.8-5,6L190.8,434.7z"></path>
<path class="st0" d="M237.3,165.1c-2.8-4.4-5.9-8.6-8.5-13.1c-11.6-20.5-27.9-37.1-43.9-53.9c-1.7-1.8-3.5-3.2-5.8-0.8  c-2.9,3-0.1,4.7,1.7,6.5c19.4,18,35.5,38.6,47.3,62.3c1.1,2.2,2.1,4.5,3.1,6.8c0.6,1.4,1,2.8,1.8,5c-4.7,1-9.1,2.3-13.6,2.7  c-54.5,4.8-110.2-27-126.5-89.6c-4.2-16.3-4.6-32.8-2-49.3c1-6.3,3.4-8.5,9.6-9.6c60.1-11.3,120.6,27.2,135.6,89.2  c1.7,7,2.6,14.4,3.1,21.6c0.5,7.2,0.1,14.6,0.1,21.8C238.6,164.9,238,165,237.3,165.1L237.3,165.1z"></path>
<path class="st0" d="M192.4,305.7c20-33.3,63.8-38.1,88-10.6c-2.1,5.5-6.3,8.6-12,8.8C243.4,304.6,218.3,305.1,192.4,305.7  L192.4,305.7z"></path>
<path class="st0" d="M357.6,255.5c-3.3,3.6-6.6,7.3-10,10.8c-10.7,11.1-21.4,22.3-32.1,33.3c-4,4.2-13.9,6-19,3.7  c-4.8-2.2-6.1-7.1-2.5-10.8c12.9-13.4,25.7-26.8,38.9-39.9C340,245.6,350.2,247,357.6,255.5z"></path>
</svg>
