<svg width="127" height="44" viewBox="0 0 127 44" fill="none" xmlns="http://www.w3.org/2000/svg">
<path fill-rule="evenodd" clip-rule="evenodd" d="M1 1H62.5708V42.419H1V1Z" stroke="#F9F4E8"/>
<path fill-rule="evenodd" clip-rule="evenodd" d="M30.4732 10.038L31.7878 9.08464L33.0696 10.038L32.5924 8.47582L33.9117 7.52246H32.293L31.7878 5.95557L31.2825 7.52246H29.6638L30.9784 8.47582L30.4732 10.038Z" fill="#F9F4E8"/>
<path fill-rule="evenodd" clip-rule="evenodd" d="M23.7691 11.8689L25.0509 10.8872L26.3609 11.8689L25.8556 10.3067L27.1749 9.35808H25.5562L25.0509 7.7959L24.5457 9.35808H22.927L24.2416 10.3067L23.7691 11.8689Z" fill="#F9F4E8"/>
<path fill-rule="evenodd" clip-rule="evenodd" d="M20.1295 12.7515L19.6243 14.3136H18.0103L19.3249 15.2717L18.8523 16.8339L20.1295 15.8805L21.4488 16.8339L20.9435 15.2717L22.2534 14.3136H20.6348L20.1295 12.7515Z" fill="#F9F4E8"/>
<path fill-rule="evenodd" clip-rule="evenodd" d="M18.3472 22.6439L19.6243 23.5925L19.1191 22.0634L20.4664 21.1147H18.8197L18.3472 19.5479L17.8419 21.1147H16.2279L17.5378 22.0634L17.0326 23.5925L18.3472 22.6439Z" fill="#F9F4E8"/>
<path fill-rule="evenodd" clip-rule="evenodd" d="M20.6348 27.9111L20.1295 26.3159L19.6243 27.9111H18.0103L19.3249 28.8598L18.8523 30.3889L20.1295 29.4403L21.4488 30.3889L20.9435 28.8598L22.2534 27.9111H20.6348Z" fill="#F9F4E8"/>
<path fill-rule="evenodd" clip-rule="evenodd" d="M25.5562 32.8713L25.0837 31.3091L24.5784 32.8713H22.927L24.2743 33.8246L23.7691 35.3868L25.0837 34.4334L26.3609 35.3868L25.8556 33.8246L27.2076 32.8713H25.5562Z" fill="#F9F4E8"/>
<path fill-rule="evenodd" clip-rule="evenodd" d="M32.293 34.674L31.7878 33.1118L31.2825 34.674H29.6638L30.9784 35.6226L30.4732 37.1848L31.7878 36.2362L33.0977 37.1848L32.5924 35.6226L33.9117 34.674H32.293Z" fill="#F9F4E8"/>
<path fill-rule="evenodd" clip-rule="evenodd" d="M38.9969 32.8713L38.4869 31.3091L38.0191 32.8713H36.3677L37.6823 33.8246L37.2098 35.3868L38.4869 34.4334L39.8062 35.3868L39.301 33.8246L40.6109 32.8713H38.9969Z" fill="#F9F4E8"/>
<path fill-rule="evenodd" clip-rule="evenodd" d="M43.9464 27.9111L43.4412 26.3159L42.9359 27.9111H41.3173L42.6319 28.8598L42.1266 30.3889L43.4412 29.4403L44.7184 30.3889L44.2505 28.8598L45.5651 27.9111H43.9464Z" fill="#F9F4E8"/>
<path fill-rule="evenodd" clip-rule="evenodd" d="M47.3477 21.0817H45.7009L45.2237 19.5195L44.7185 21.0817H43.1045L44.4191 22.0303L43.9138 23.5925L45.2237 22.6439L46.5056 23.5925L46.0378 22.0303L47.3477 21.0817Z" fill="#F9F4E8"/>
<path fill-rule="evenodd" clip-rule="evenodd" d="M42.1266 16.7961L43.4412 15.8475L44.7184 16.7961L44.2505 15.2717L45.5651 14.3136H43.9464L43.4412 12.7515L42.9359 14.3136H41.3173L42.6319 15.2717L42.1266 16.7961Z" fill="#F9F4E8"/>
<path fill-rule="evenodd" clip-rule="evenodd" d="M38.5244 7.7959L38.0192 9.35808H36.4005L37.7151 10.3067L37.2099 11.8689L38.5244 10.8872L39.8063 11.8689L39.3291 10.3067L40.6484 9.35808H39.0297L38.5244 7.7959Z" fill="#F9F4E8"/>
<path d="M68.6292 1.50977H72.746V2.1941H69.3824V3.94978H72.5308V4.63412H69.3824V6.57387H72.8817V7.2582H68.6292V1.50977Z" fill="#F9F4E8"/>
<path d="M78.4114 1.50977V4.83234C78.4114 5.59691 78.4114 7.35259 76.1846 7.35259C74.0279 7.35259 73.9343 5.85177 73.9343 4.83234V1.50977H74.6922V4.8229C74.6922 5.5214 74.6922 6.66826 76.1238 6.66826C77.5226 6.66826 77.6582 5.85649 77.6582 4.8229V1.50977H78.4114Z" fill="#F9F4E8"/>
<path d="M79.6839 1.50977H82.2055C82.6032 1.50977 82.9681 1.5192 83.3423 1.66079C83.9224 1.88261 84.2312 2.47728 84.2312 3.08138C84.2312 4.00642 83.6043 4.50198 82.6312 4.6294V4.64356C82.9166 4.78043 83.2581 4.98809 83.7026 5.68658L84.6943 7.24876H83.7493L83.0008 6.05943C82.1915 4.76627 81.9295 4.70964 81.2979 4.70964H80.4324V7.24404H79.6746V1.50977H79.6839ZM80.4371 4.03946H82.0511C82.3926 4.03946 82.6453 4.03945 82.9587 3.90259C83.2534 3.77516 83.4499 3.43063 83.4499 3.0861C83.4499 2.72269 83.2534 2.4348 83.0148 2.30737C82.7763 2.17995 82.5283 2.1469 82.2336 2.1469H80.4371V4.03946Z" fill="#F9F4E8"/>
<path d="M87.7305 1.41553C89.279 1.41553 90.4486 2.54823 90.4486 4.39358C90.4486 6.2531 89.2462 7.35275 87.7305 7.35275C85.9481 7.35275 85.0031 5.92272 85.0031 4.45493C85.0031 2.41608 86.2522 1.41553 87.7305 1.41553ZM87.7258 6.70146C88.7691 6.70146 89.672 5.96992 89.672 4.39358C89.672 2.75117 88.7082 2.06683 87.7398 2.06683C87.1363 2.06683 86.5328 2.33113 86.1913 2.83612C85.7843 3.41191 85.7843 4.28975 85.7843 4.47382C85.7843 5.80002 86.5703 6.70146 87.7258 6.70146Z" fill="#F9F4E8"/>
<path d="M91.4312 1.50977H93.5785C94.0884 1.50977 94.7621 1.50976 95.2252 1.89677C95.6135 2.2177 95.7726 2.72269 95.7726 3.17105C95.7726 3.83651 95.4545 4.46421 94.8837 4.70491C94.3831 4.91257 93.9527 4.93146 93.644 4.93146H92.189V7.2582H91.4312V1.50977ZM92.1844 4.24711H93.6487C94.0603 4.24711 94.9913 4.20936 94.9913 3.19465C94.9913 2.95395 94.9212 2.64718 94.6826 2.43008C94.4206 2.18938 94.1025 2.18939 93.6346 2.18939H92.189V4.24711H92.1844Z" fill="#F9F4E8"/>
<path d="M96.7504 1.50977H100.867V2.1941H97.5036V3.94978H100.652V4.63412H97.5036V6.57387H101.003V7.2582H96.7504V1.50977Z" fill="#F9F4E8"/>
<path d="M102.476 1.50977H103.23V7.25349H102.476V1.50977Z" fill="#F9F4E8"/>
<path d="M105.031 5.34677C105.04 5.4742 105.068 5.7149 105.181 5.932C105.499 6.55026 106.285 6.66825 106.706 6.66825C107.492 6.66825 108.123 6.33316 108.123 5.6913C108.123 5.0164 107.553 4.87481 106.397 4.59164C105.658 4.41702 104.535 4.15271 104.535 3.00114C104.535 2.10914 105.265 1.41064 106.533 1.41064C107.758 1.41064 108.633 2.00532 108.671 3.13329L107.946 3.18993C107.908 2.7746 107.74 2.09026 106.561 2.09026C106.07 2.09026 105.251 2.23185 105.251 2.94922C105.251 3.44478 105.569 3.63356 106.612 3.86482C107.655 4.09608 108.848 4.36982 108.848 5.62994C108.848 6.5833 108.039 7.34787 106.743 7.34787C105.377 7.34787 104.755 6.81928 104.46 6.11134C104.334 5.79985 104.325 5.55915 104.315 5.40341L105.031 5.34677Z" fill="#F9F4E8"/>
<path d="M109.84 1.50977H110.593V4.36038L113.424 1.50977H114.444L112.058 3.83651L114.546 7.25349H113.555L111.534 4.35094L110.593 5.26654V7.2582H109.84V1.50977Z" fill="#F9F4E8"/>
<path d="M116.745 1.50977H117.555L119.875 7.25349H119.024L118.355 5.50252H115.978L115.351 7.25349H114.556L116.745 1.50977ZM116.198 4.90314H118.13L117.536 3.30792C117.391 2.93036 117.265 2.57639 117.148 2.11387H117.134C117.063 2.49144 116.965 2.85012 116.829 3.21353L116.198 4.90314Z" fill="#F9F4E8"/>
<path d="M73.1062 10.4771V13.7996C73.1062 14.5642 73.1062 16.3199 70.8794 16.3199C68.7227 16.3199 68.6292 14.8191 68.6292 13.7996V10.4771H69.3824V13.7902C69.3824 14.4887 69.3823 15.6355 70.8139 15.6355C72.2127 15.6355 72.3484 14.8238 72.3484 13.7902V10.4771H73.1062Z" fill="#F9F4E8"/>
<path d="M74.3696 10.4771H75.1415L78.1168 14.9842H78.1309V10.4771H78.8467V16.2208H78.0747L75.0994 11.7136H75.0806V16.2208H74.3649V10.4771H74.3696Z" fill="#F9F4E8"/>
<path d="M80.2173 10.4771H80.9752V16.2208H80.2173V10.4771Z" fill="#F9F4E8"/>
<path d="M84.7973 10.3828C86.3458 10.3828 87.5153 11.5155 87.5153 13.3609C87.5153 15.2204 86.313 16.32 84.7973 16.32C83.0148 16.32 82.0698 14.89 82.0698 13.4222C82.0698 11.3834 83.3189 10.3828 84.7973 10.3828ZM84.7879 15.6687C85.8312 15.6687 86.7341 14.9372 86.7341 13.3609C86.7341 11.7185 85.7703 11.0341 84.8019 11.0341C84.1984 11.0341 83.5949 11.2984 83.2534 11.8034C82.8464 12.3792 82.8464 13.257 82.8464 13.4411C82.8464 14.7673 83.637 15.6687 84.7879 15.6687Z" fill="#F9F4E8"/>
<path d="M88.5118 10.4771H89.2838L92.2591 14.9842H92.2732V10.4771H92.9889V16.2208H92.217L89.2416 11.7136H89.2276V16.2208H88.5118V10.4771Z" fill="#F9F4E8"/>
<path d="M94.2521 10.4771H98.3689V11.1614H95.0053V12.9171H98.1538V13.6014H95.0053V15.5412H98.5046V16.2255H94.2521V10.4771Z" fill="#F9F4E8"/>
<path d="M99.5573 10.4771H100.329L103.305 14.9842H103.319V10.4771H104.034V16.2208H103.262L100.287 11.7136H100.273V16.2208H99.5573V10.4771Z" fill="#F9F4E8"/>
<path d="M68.6246 19.543H72.5029V20.1848H69.3357V21.8367H72.3018V22.4785H69.3357V24.305H72.6292V24.9469H68.6246V19.543Z" fill="#F9F4E8"/>
<path d="M76.0817 24.3805H76.0677C75.642 25.0224 75.0478 25.046 74.8467 25.046C74.4256 25.046 73.911 24.8666 73.7005 24.4702C73.5274 24.1445 73.5227 23.8189 73.5227 23.4649V21.0391H74.1823V23.2054C74.1823 23.6112 74.1823 23.7811 74.2432 23.9841C74.3321 24.3003 74.6549 24.4655 74.9823 24.4655C75.3472 24.4655 75.7402 24.2625 75.8806 23.9463C76.0022 23.6726 76.0162 23.4083 76.0162 23.1298V21.0391H76.6759V24.9516H76.0864V24.3805H76.0817Z" fill="#F9F4E8"/>
<path d="M77.6677 21.0389H78.2665V21.6288H78.2806C78.4303 21.3268 78.6315 20.9492 79.104 20.9492C79.4408 20.9492 79.6653 21.0908 79.7776 21.1616L79.5531 21.7751C79.4127 21.6902 79.2443 21.6336 79.0759 21.6336C78.3929 21.6336 78.3274 22.502 78.3274 22.9031V24.9561H77.6677V21.0389Z" fill="#F9F4E8"/>
<path d="M80.3388 21.6005C80.6897 21.1474 81.2511 20.9492 81.761 20.9492C82.575 20.9492 83.5809 21.4401 83.5809 22.9362C83.5809 23.7762 83.3703 24.1585 83.1926 24.3803C82.8277 24.8334 82.2803 25.0458 81.761 25.0458C81.237 25.0458 80.6897 24.8429 80.3248 24.3803C79.9646 23.9273 79.9412 23.2948 79.9412 22.9975C79.9412 22.5728 80.0113 22.0206 80.3388 21.6005ZM81.761 24.4983C82.6967 24.4983 82.9072 23.5922 82.9072 22.9739C82.9072 21.9309 82.3505 21.492 81.761 21.492C81.3493 21.492 80.6148 21.7279 80.6148 22.9975C80.6148 24.2718 81.3727 24.4983 81.761 24.4983Z" fill="#F9F4E8"/>
<path d="M84.3481 21.0389H84.947V21.5439H84.961C85.0733 21.3645 85.368 20.9492 86.0698 20.9492C87.1691 20.9492 87.7165 21.8695 87.7165 22.9645C87.7165 24.3567 86.8791 25.0411 86.023 25.0411C85.5598 25.0411 85.2136 24.8051 85.0218 24.5408H85.0078V26.4522H84.3481V21.0389ZM85.9855 24.4983C86.3738 24.4983 87.0475 24.2482 87.0475 22.9645C87.0475 21.8601 86.5095 21.4684 86.0136 21.4684C85.382 21.4684 84.9423 22.1008 84.9423 23.0164C84.9423 24.1963 85.5317 24.4983 85.9855 24.4983Z" fill="#F9F4E8"/>
<path d="M91.8521 23.7764C91.6556 24.5174 91.1129 25.046 90.1539 25.046C88.9469 25.046 88.2966 24.2389 88.2966 23.0307C88.2966 21.8367 88.9329 20.9541 90.1165 20.9541C90.4486 20.9541 91.9363 21.0532 91.8755 23.1676H88.9703C89.0218 24.1068 89.5691 24.5032 90.1539 24.5032C90.8931 24.5032 91.0989 23.9227 91.1784 23.6962L91.8521 23.7764ZM91.2018 22.6201C91.1878 22.4785 91.1738 22.3086 91.0989 22.1198C90.9632 21.7847 90.589 21.4921 90.1165 21.4921C89.382 21.4921 89.0452 22.1057 89.0077 22.6154H91.2018V22.6201Z" fill="#F9F4E8"/>
<path d="M92.6663 19.543H93.3259V20.2981H92.6663V19.543ZM92.6663 21.0391H93.3259V24.9516H92.6663V21.0391Z" fill="#F9F4E8"/>
<path d="M94.7106 23.682C94.7761 24.2012 95.0942 24.4985 95.7117 24.4985C96.3948 24.4985 96.6053 24.1351 96.6053 23.8708C96.6053 23.5546 96.3433 23.4413 95.955 23.3422L95.5199 23.2384C94.9305 23.0968 94.1632 22.8891 94.1632 22.0774C94.1632 21.4733 94.6591 20.9541 95.5948 20.9541C96.9561 20.9541 97.0871 21.747 97.1386 22.049L96.493 22.1387C96.4088 21.544 95.9035 21.4968 95.6369 21.4968C95.3749 21.4968 94.7995 21.5582 94.7995 22.0018C94.7995 22.3322 95.0755 22.4077 95.7117 22.5776C96.7316 22.8419 97.2789 23.0024 97.2789 23.8094C97.2789 24.4607 96.7316 25.046 95.7211 25.046C94.3129 25.046 94.1258 24.1776 94.0603 23.7858L94.7106 23.682Z" fill="#F9F4E8"/>
<path d="M98.0649 19.543H98.7246V22.6249L100.282 21.0391H101.134L99.6509 22.488L101.284 24.9516H100.474L99.1877 22.9505L98.7246 23.3989V24.9563H98.0649V19.543Z" fill="#F9F4E8"/>
<path d="M101.709 22.1574C101.784 21.8082 101.962 20.9492 103.464 20.9492C104.97 20.9492 104.97 21.7421 104.97 22.4217V23.3137C104.97 24.319 104.97 24.5738 105.181 24.9514H104.493C104.39 24.7485 104.371 24.5644 104.357 24.47C103.805 24.9467 103.347 25.0458 102.926 25.0458C102.074 25.0458 101.602 24.5691 101.602 23.9178C101.602 22.8748 102.701 22.7474 103.127 22.6955C103.225 22.6813 103.936 22.6058 104.31 22.4689C104.324 22.0442 104.334 21.4967 103.365 21.4967C102.542 21.4967 102.434 21.9215 102.355 22.2471L101.709 22.1574ZM104.306 22.9881C104.053 23.0872 103.567 23.1863 103.22 23.2382C102.813 23.2996 102.299 23.3751 102.299 23.9037C102.299 24.1821 102.486 24.5219 103.075 24.5219C103.262 24.5219 103.702 24.4842 104.011 24.1538C104.273 23.8659 104.301 23.5591 104.301 23.2335V22.9881H104.306Z" fill="#F9F4E8"/>
<path d="M68.5122 29.7698H69.111V30.3598H69.1251C69.2748 30.0577 69.4759 29.6802 69.9484 29.6802C70.2853 29.6802 70.5098 29.8218 70.6221 29.8926L70.3976 30.5061C70.2572 30.4211 70.0888 30.3645 69.9204 30.3645C69.2373 30.3645 69.1718 31.2329 69.1718 31.6341V33.6871H68.5122V29.7698Z" fill="#F9F4E8"/>
<path d="M74.374 32.5074C74.1775 33.2483 73.6301 33.7769 72.6758 33.7769C71.4688 33.7769 70.8185 32.9699 70.8185 31.7617C70.8185 30.5676 71.4547 29.6851 72.6383 29.6851C72.9658 29.6851 74.4582 29.7842 74.3974 31.8985H71.4922C71.5436 32.833 72.091 33.2342 72.6758 33.2342C73.4149 33.2342 73.6208 32.6537 73.7003 32.4271L74.374 32.5074ZM73.7237 31.3511C73.7097 31.2095 73.6956 31.0396 73.6208 30.8508C73.4851 30.5157 73.1108 30.2231 72.6383 30.2231C71.9038 30.2231 71.567 30.8366 71.5296 31.3464H73.7237V31.3511Z" fill="#F9F4E8"/>
<path d="M75.7121 34.1071C75.7401 34.3101 75.8337 34.7254 76.6056 34.7254C77.705 34.7254 77.7003 33.9467 77.7003 33.1679C77.3354 33.6069 76.9284 33.6824 76.6243 33.6824C75.539 33.6824 74.9448 32.7526 74.9448 31.6954C74.9448 30.7421 75.4173 29.6802 76.629 29.6802C76.8442 29.6802 77.3307 29.7038 77.7424 30.2371H77.7565V29.7698H78.3646V33.1538C78.3646 33.4794 78.3506 34.1826 78.126 34.5602C77.8032 35.0982 77.181 35.2681 76.615 35.2681C76.1284 35.2681 75.0477 35.1266 75.0805 34.008L75.7121 34.1071ZM75.8571 32.696C76.0442 32.9697 76.3436 33.1396 76.6805 33.1396C77.0454 33.1396 77.3307 32.9414 77.5038 32.7007C77.7144 32.4081 77.7518 32.0352 77.7518 31.6718C77.7518 30.5533 77.1296 30.2229 76.6711 30.2229C76.0863 30.2229 75.6138 30.7138 75.6138 31.6577C75.6185 31.7662 75.6185 32.3467 75.8571 32.696Z" fill="#F9F4E8"/>
<path d="M79.3518 28.2744H80.0115V29.0295H79.3518V28.2744ZM79.3518 29.7705H80.0115V33.6831H79.3518V29.7705Z" fill="#F9F4E8"/>
<path d="M81.1716 30.3315C81.5225 29.8784 82.0838 29.6802 82.5938 29.6802C83.4078 29.6802 84.4136 30.171 84.4136 31.6671C84.4136 32.5072 84.2031 32.8895 84.0253 33.1113C83.6604 33.5644 83.1131 33.7768 82.5938 33.7768C82.0698 33.7768 81.5225 33.5738 81.1575 33.1113C80.7973 32.6582 80.7739 32.0258 80.7739 31.7285C80.7739 31.3037 80.8394 30.7515 81.1716 30.3315ZM82.5938 33.2293C83.5294 33.2293 83.74 32.3231 83.74 31.7049C83.74 30.6618 83.1832 30.2229 82.5938 30.2229C82.1821 30.2229 81.4476 30.4589 81.4476 31.7285C81.4476 33.0028 82.2055 33.2293 82.5938 33.2293Z" fill="#F9F4E8"/>
<path d="M85.1808 29.7698H85.7703V30.322H85.7843C86.1679 29.7321 86.7434 29.6802 87.0054 29.6802C87.4077 29.6802 87.941 29.8312 88.1656 30.256C88.3387 30.5816 88.3387 30.8601 88.3387 31.2754V33.6871H87.679V31.3084C87.679 30.9686 87.679 30.2607 86.8697 30.2607C86.4954 30.2607 86.1118 30.4589 85.9715 30.7515C85.8451 31.03 85.8358 31.3179 85.8358 31.5538V33.6918H85.1761V29.7698H85.1808Z" fill="#F9F4E8"/>
<path d="M89.2322 30.8884C89.3071 30.5391 89.4849 29.6802 90.9866 29.6802C92.493 29.6802 92.493 30.4731 92.493 31.1527V32.0447C92.493 33.0499 92.493 33.3048 92.7035 33.6824H92.0158C91.9129 33.4794 91.8942 33.2954 91.8801 33.201C91.3281 33.6777 90.8696 33.7768 90.4486 33.7768C89.5971 33.7768 89.1246 33.3001 89.1246 32.6488C89.1246 31.6058 90.224 31.4783 90.6497 31.4264C90.748 31.4123 91.4591 31.3367 91.8334 31.1999C91.8474 30.7751 91.8568 30.2276 90.8883 30.2276C90.065 30.2276 89.9574 30.6524 89.8778 30.9781L89.2322 30.8884ZM91.8287 31.719C91.5761 31.8181 91.0895 31.9172 90.7433 31.9692C90.3363 32.0305 89.8217 32.106 89.8217 32.6346C89.8217 32.9131 90.0088 33.2529 90.5983 33.2529C90.7854 33.2529 91.2252 33.2151 91.5339 32.8848C91.7959 32.5969 91.824 32.2854 91.824 31.9644V31.719H91.8287Z" fill="#F9F4E8"/>
<path d="M93.4988 28.2744H94.1584V33.6831H93.4988V28.2744Z" fill="#F9F4E8"/>
<path d="M95.0568 30.8884C95.1317 30.5391 95.3094 29.6802 96.8112 29.6802C98.3176 29.6802 98.3176 30.4731 98.3176 31.1527V32.0447C98.3176 33.0499 98.3176 33.3048 98.5281 33.6824H97.8404C97.7375 33.4794 97.7188 33.2954 97.7047 33.201C97.148 33.6777 96.6942 33.7768 96.2732 33.7768C95.417 33.7768 94.9492 33.3001 94.9492 32.6488C94.9492 31.6058 96.0486 31.4783 96.479 31.4264C96.5773 31.4123 97.2884 31.3367 97.6626 31.1999C97.6767 30.7751 97.686 30.2276 96.7176 30.2276C95.8942 30.2276 95.7913 30.6524 95.7071 30.9781L95.0568 30.8884ZM97.6533 31.719C97.4006 31.8181 96.9141 31.9172 96.5679 31.9692C96.1656 32.0305 95.6463 32.106 95.6463 32.6346C95.6463 32.9131 95.8334 33.2529 96.4276 33.2529C96.6147 33.2529 97.0545 33.2151 97.3632 32.8848C97.6252 32.5969 97.6533 32.2854 97.6533 31.9644V31.719Z" fill="#F9F4E8"/>
<path d="M71.0899 41.8429H71.0759C70.6501 42.4848 70.056 42.5084 69.8548 42.5084C69.4338 42.5084 68.9192 42.329 68.7087 41.9326C68.5356 41.6069 68.5309 41.2813 68.5309 40.9273V38.5015H69.1905V40.6678C69.1905 41.0784 69.1905 41.2435 69.2513 41.4465C69.3402 41.7627 69.663 41.9326 69.9905 41.9326C70.3554 41.9326 70.7484 41.7297 70.8887 41.4087C71.0104 41.135 71.0244 40.8707 71.0244 40.5922V38.5015H71.684V42.414H71.0946V41.8429H71.0899Z" fill="#F9F4E8"/>
<path d="M74.2104 42.4098C74.0981 42.4334 73.9344 42.4711 73.7145 42.4711C72.8023 42.4711 72.8023 41.919 72.8023 41.2724V39.0211H72.3251V38.5067H72.8023V37.5345L73.4619 37.1333V38.5067H74.1215V39.0211H73.4619V41.3101C73.4619 41.6263 73.4619 41.8529 73.8268 41.8529C73.9391 41.8529 74.042 41.8387 74.1169 41.8246L74.2104 42.4098Z" fill="#F9F4E8"/>
<path d="M74.3743 38.5015H75.0713L75.9041 40.8424C76.0397 41.2199 76.1006 41.4512 76.1427 41.6353H76.1567C76.2315 41.3332 76.3298 41.0595 76.3953 40.8896L77.2561 38.5015H77.9298L76.4608 42.414H75.8479L74.3743 38.5015Z" fill="#F9F4E8"/>
<path d="M81.6817 41.2386C81.4852 41.9796 80.9425 42.5082 79.9835 42.5082C78.7765 42.5082 78.1262 41.7012 78.1262 40.4882C78.1262 39.2942 78.7625 38.4116 79.9461 38.4116C80.2782 38.4116 81.7659 38.5107 81.7051 40.6251H78.7999C78.8513 41.5596 79.3987 41.9607 79.9835 41.9607C80.7227 41.9607 80.9285 41.3802 81.008 41.1537L81.6817 41.2386ZM81.0314 40.0823C81.0174 39.9408 81.0034 39.7709 80.9285 39.5821C80.7928 39.247 80.4186 38.9544 79.9461 38.9544C79.2116 38.9544 78.8747 39.5679 78.8373 40.0776H81.0314V40.0823Z" fill="#F9F4E8"/>
<path d="M85.6721 41.0642C85.4616 42.3857 84.3856 42.5084 84.0534 42.5084C82.7716 42.5084 82.285 41.5125 82.285 40.4695C82.285 38.8365 83.2815 38.4165 84.0534 38.4165C84.423 38.4165 85.0218 38.5203 85.3633 39.03C85.5271 39.266 85.5738 39.4878 85.6019 39.6578L84.9657 39.7569C84.83 39.1905 84.4885 38.964 84.0815 38.964C83.0569 38.964 82.9587 39.9976 82.9587 40.4601C82.9587 40.7102 82.9587 41.9703 84.0441 41.9703C84.8815 41.9703 84.9937 41.1822 85.0171 40.9887L85.6721 41.0642Z" fill="#F9F4E8"/>
<path d="M86.0837 37.0054H86.7434V40.0873L88.3012 38.5015H89.1574L87.6743 39.9504L89.3071 42.414H88.4977L87.2112 40.4129L86.7481 40.8613V42.4187H86.0884V37.0054H86.0837Z" fill="#F9F4E8"/>
<path d="M89.8312 37.0054H90.4908V42.414H89.8312V37.0054Z" fill="#F9F4E8"/>
<path d="M91.4918 37.0054H92.1515V37.7605H91.4918V37.0054ZM91.4918 38.5015H92.1515V42.414H91.4918V38.5015Z" fill="#F9F4E8"/>
<path d="M93.1619 38.5013H93.7514V39.0535H93.7654C94.149 38.4635 94.7244 38.4116 94.9864 38.4116C95.3888 38.4116 95.9221 38.5626 96.1466 38.9874C96.3197 39.3131 96.3197 39.5915 96.3197 40.0068V42.4185H95.6601V40.0399C95.6601 39.7001 95.6601 38.9921 94.8508 38.9921C94.4765 38.9921 94.0929 39.1903 93.9525 39.483C93.8262 39.7614 93.8169 40.0493 93.8169 40.2853V42.4233H93.1572V38.5013H93.1619Z" fill="#F9F4E8"/>
<path d="M97.8405 42.8386C97.8685 43.0415 97.9621 43.4568 98.734 43.4568C99.8334 43.4568 99.8287 42.6781 99.8287 41.8994C99.4638 42.3383 99.0568 42.4138 98.7527 42.4138C97.6674 42.4138 97.0732 41.4841 97.0732 40.4269C97.0732 39.4735 97.5457 38.4116 98.7574 38.4116C98.9726 38.4116 99.4592 38.4352 99.8709 38.9685H99.8849V38.5013H100.493V41.8852C100.493 42.2109 100.479 42.9141 100.254 43.2917C99.9317 43.8297 99.3095 43.9996 98.7434 43.9996C98.2568 43.9996 97.1762 43.858 97.2089 42.7395L97.8405 42.8386ZM97.9855 41.4274C98.1726 41.7012 98.472 41.8711 98.8089 41.8711C99.1738 41.8711 99.4592 41.6728 99.6323 41.4321C99.8428 41.1395 99.8802 40.7667 99.8802 40.4033C99.8802 39.2847 99.258 38.9544 98.7995 38.9544C98.2147 38.9544 97.7422 39.4452 97.7422 40.3891C97.7469 40.4977 97.7469 41.0782 97.9855 41.4274Z" fill="#F9F4E8"/>
<path d="M101.859 41.1444C101.924 41.6683 102.243 41.9609 102.86 41.9609C103.543 41.9609 103.754 41.5975 103.754 41.3332C103.754 41.017 103.492 40.9037 103.103 40.8046L102.668 40.7008C102.079 40.5592 101.312 40.3515 101.312 39.5398C101.312 38.9357 101.807 38.4165 102.743 38.4165C104.104 38.4165 104.235 39.2094 104.287 39.5114L103.641 39.6011C103.557 39.0064 103.052 38.9593 102.785 38.9593C102.523 38.9593 101.948 39.0206 101.948 39.4642C101.948 39.7946 102.224 39.8701 102.86 40.04C103.88 40.3043 104.427 40.4648 104.427 41.2718C104.427 41.9231 103.88 42.5084 102.869 42.5084C101.461 42.5084 101.274 41.64 101.209 41.2482L101.859 41.1444Z" fill="#F9F4E8"/>
<path d="M105.363 39.0162H104.778V38.5018H105.363V38.077C105.363 37.6995 105.363 36.916 106.434 36.916C106.71 36.916 106.897 36.9538 107.047 36.9821L106.949 37.5626C106.827 37.539 106.701 37.5248 106.561 37.5248C106.046 37.5248 106.023 37.8127 106.023 38.1289V38.4971H106.771V39.0115H106.023V42.4096H105.363V39.0162Z" fill="#F9F4E8"/>
<path d="M107.239 39.0629C107.59 38.6098 108.151 38.4116 108.661 38.4116C109.475 38.4116 110.481 38.9025 110.481 40.3986C110.481 41.2386 110.27 41.6209 110.093 41.8427C109.728 42.2958 109.18 42.5082 108.661 42.5082C108.137 42.5082 107.59 42.3053 107.225 41.8427C106.865 41.3897 106.841 40.7572 106.841 40.4599C106.841 40.0352 106.907 39.483 107.239 39.0629ZM108.661 41.9607C109.597 41.9607 109.807 41.0546 109.807 40.4363C109.807 39.3933 109.251 38.9544 108.661 38.9544C108.249 38.9544 107.515 39.1903 107.515 40.4599C107.515 41.7342 108.273 41.9607 108.661 41.9607Z" fill="#F9F4E8"/>
<path d="M111.248 38.5013H111.838V39.0535H111.852C112.235 38.4635 112.811 38.4116 113.073 38.4116C113.48 38.4116 114.009 38.5626 114.233 38.9874C114.406 39.3131 114.406 39.5915 114.406 40.0068V42.4185H113.747V40.0399C113.747 39.7001 113.747 38.9921 112.937 38.9921C112.563 38.9921 112.179 39.1903 112.039 39.483C111.913 39.7614 111.903 40.0493 111.903 40.2853V42.4233H111.244V38.5013H111.248Z" fill="#F9F4E8"/>
<path d="M117.929 41.9184H117.915C117.564 42.5084 116.984 42.5084 116.844 42.5084C115.922 42.5084 115.173 41.7155 115.173 40.4601C115.173 39.1811 115.838 38.4118 116.816 38.4118C117.302 38.4118 117.667 38.6383 117.873 38.9498H117.887V37.0054H118.546V42.414H117.934V41.9184H117.929ZM116.909 41.9609C117.12 41.9609 117.943 41.8618 117.943 40.5167C117.943 39.7522 117.681 38.9546 116.881 38.9546C115.894 38.9546 115.847 40.1722 115.847 40.4601C115.847 41.6919 116.525 41.9609 116.909 41.9609Z" fill="#F9F4E8"/>
<path d="M122.911 41.2386C122.715 41.9796 122.172 42.5082 121.213 42.5082C120.006 42.5082 119.356 41.7012 119.356 40.4882C119.356 39.2942 119.992 38.4116 121.175 38.4116C121.503 38.4116 122.995 38.5107 122.934 40.6251H120.029C120.081 41.5596 120.628 41.9607 121.213 41.9607C121.952 41.9607 122.158 41.3802 122.237 41.1537L122.911 41.2386ZM122.261 40.0823C122.247 39.9408 122.233 39.7709 122.158 39.5821C122.022 39.247 121.648 38.9544 121.175 38.9544C120.441 38.9544 120.104 39.5679 120.067 40.0776H122.261V40.0823Z" fill="#F9F4E8"/>
<path d="M123.842 38.5013H124.432V39.0535H124.446C124.829 38.4635 125.405 38.4116 125.667 38.4116C126.069 38.4116 126.602 38.5626 126.827 38.9874C127 39.3131 127 39.5915 127 40.0068V42.4185H126.34V40.0399C126.34 39.7001 126.34 38.9921 125.531 38.9921C125.157 38.9921 124.773 39.1903 124.633 39.483C124.506 39.7614 124.497 40.0493 124.497 40.2853V42.4233H123.837V38.5013H123.842Z" fill="#F9F4E8"/>
</svg>
