<svg width="128" height="128" viewBox="0 0 128 128" fill="none" xmlns="http://www.w3.org/2000/svg">
<path d="M128 63.9999C128 28.6537 99.3463 -9.9552e-05 64 -9.9552e-05C28.6538 -9.9552e-05 0 28.6537 0 63.9999C0 95.9442 23.4039 122.421 54 127.222V82.4999H37.75V63.9999H54V49.8999C54 33.8599 63.5547 24.9999 78.1737 24.9999C85.1759 24.9999 92.5 26.2499 92.5 26.2499V41.9999H84.4297C76.4794 41.9999 74 46.9333 74 51.9945V63.9999H91.75L88.9125 82.4999H74V127.222C104.596 122.421 128 95.9442 128 63.9999Z" fill="white"/>
</svg>
