<svg width="128" height="128" viewBox="0 0 128 128" fill="none" xmlns="http://www.w3.org/2000/svg">
<g clip-path="url(#clip0)">
<path d="M64.0002 -0.000242059C46.6187 -0.000242059 44.4392 0.0734361 37.613 0.3849C30.8009 0.695602 26.1485 1.77759 22.0775 3.35955C17.869 4.99512 14.2999 7.18351 10.7418 10.7415C7.18382 14.2994 4.99544 17.8688 3.3599 22.0774C1.77785 26.1483 0.695954 30.8006 0.385044 37.6127C0.0736345 44.439 0 46.6185 0 64C0 81.3813 0.0736345 83.5608 0.385044 90.387C0.695954 97.1991 1.77785 101.852 3.3599 105.922C4.99544 110.131 7.18382 113.7 10.7418 117.258C14.2999 120.816 17.869 123.005 22.0775 124.64C26.1485 126.222 30.8009 127.304 37.613 127.615C44.4392 127.926 46.6187 128 64.0002 128C81.3815 128 83.561 127.926 90.3873 127.615C97.1994 127.304 101.852 126.222 105.923 124.64C110.131 123.005 113.7 120.816 117.259 117.258C120.816 113.7 123.005 110.131 124.64 105.922C126.222 101.852 127.304 97.1991 127.615 90.387C127.927 83.5608 128 81.3813 128 64C128 46.6185 127.927 44.439 127.615 37.6127C127.304 30.8006 126.222 26.1483 124.64 22.0774C123.005 17.8688 120.816 14.2994 117.259 10.7415C113.7 7.18351 110.131 4.99512 105.923 3.35955C101.852 1.77759 97.1994 0.695602 90.3873 0.3849C83.561 0.0734361 81.3815 -0.000242059 64.0002 -0.000242059ZM64.0002 11.5313C81.0888 11.5313 83.1131 11.5966 89.8617 11.9045C96.1016 12.189 99.4904 13.2316 101.746 14.1081C104.733 15.2691 106.865 16.656 109.104 18.8954C111.344 21.1351 112.731 23.2671 113.892 26.2544C114.768 28.5096 115.811 31.8984 116.096 38.1383C116.403 44.8869 116.469 46.9112 116.469 64C116.469 81.0886 116.403 83.1129 116.096 89.8614C115.811 96.1014 114.768 99.4901 113.892 101.745C112.731 104.733 111.344 106.865 109.104 109.104C106.865 111.344 104.733 112.731 101.746 113.892C99.4904 114.768 96.1016 115.811 89.8617 116.095C83.1141 116.403 81.0901 116.468 64.0002 116.468C46.9101 116.468 44.8864 116.403 38.1386 116.095C31.8986 115.811 28.5099 114.768 26.2547 113.892C23.2673 112.731 21.1354 111.344 18.8959 109.104C16.6564 106.865 15.2693 104.733 14.1084 101.745C13.2319 99.4901 12.1894 96.1014 11.9047 89.8614C11.5967 83.1129 11.5315 81.0886 11.5315 64C11.5315 46.9112 11.5967 44.8869 11.9047 38.1383C12.1894 31.8984 13.2319 28.5096 14.1084 26.2544C15.2693 23.2671 16.6563 21.1351 18.8958 18.8957C21.1354 16.656 23.2673 15.2691 26.2547 14.1081C28.5099 13.2316 31.8986 12.189 38.1386 11.9045C44.8871 11.5966 46.9114 11.5313 64.0002 11.5313Z" fill="white"/>
<path d="M64.0003 85.3335C52.218 85.3335 42.6668 75.7822 42.6668 64.0002C42.6668 52.2179 52.218 42.6667 64.0003 42.6667C75.7823 42.6667 85.3335 52.2179 85.3335 64.0002C85.3335 75.7822 75.7823 85.3335 64.0003 85.3335V85.3335ZM64.0003 31.1352C45.8493 31.1352 31.1353 45.8492 31.1353 64.0002C31.1353 82.151 45.8493 96.865 64.0003 96.865C82.1511 96.865 96.8651 82.151 96.8651 64.0002C96.8651 45.8492 82.1511 31.1352 64.0003 31.1352Z" fill="white"/>
<path d="M105.844 29.8365C105.844 34.0781 102.405 37.5164 98.1635 37.5164C93.9222 37.5164 90.4836 34.0781 90.4836 29.8365C90.4836 25.5949 93.9222 22.1563 98.1635 22.1563C102.405 22.1563 105.844 25.5949 105.844 29.8365" fill="white"/>
</g>
<defs>
<clipPath id="clip0">
<rect width="128" height="128" fill="white"/>
</clipPath>
</defs>
</svg>
