<?xml version="1.0" encoding="utf-8"?>
<!-- Generator: Adobe Illustrator 27.0.0, SVG Export Plug-In . SVG Version: 6.00 Build 0)  -->
<svg version="1.1" id="Lager_1" xmlns="http://www.w3.org/2000/svg" xmlns:xlink="http://www.w3.org/1999/xlink" x="0px" y="0px"
	 viewBox="0 0 200 120" style="enable-background:new 0 0 200 120;" xml:space="preserve">
<style type="text/css">
	.st0{fill-rule:evenodd;clip-rule:evenodd;fill:#1D1D1B;}
	.st1{fill:#FF5F00;}
	.st2{fill:#EB001B;}
	.st3{fill:#F79E1B;}
	.st4{fill:#FFFFFF;}
</style>
<g id="Rounded_00000120548750572885765210000012828089626695661754_">
	<g id="Large_00000021828563470931804110000015186233762726835855_" transform="translate(-32.000000, -28.000000)">
		<g id="large_x2F_visa" transform="translate(32.000000, 28.000000)">
			<path id="Background" class="st0" d="M7.5,0h184c4.4,0,8,3.6,8,8v104c0,4.4-3.6,8-8,8H7.5c-4.4,0-8-3.6-8-8V8
				C-0.5,3.6,3.1,0,7.5,0z"/>
		</g>
	</g>
</g>
<g id="Rounded">
	<g id="Large" transform="translate(-32.000000, -404.000000)">
		<g id="large_x2F_mastercard" transform="translate(32.000000, 404.000000)">
			<g id="Logo" transform="translate(52.000000, 20.000000)">
				<g id="mastercard">
					<rect id="Rectangle-path" x="35.1" y="4" class="st1" width="29" height="53.6"/>
					<path id="Shape" class="st2" d="M37,30.8c0-10.9,5-20.5,12.6-26.8C44-0.5,36.9-3.3,29.1-3.3C10.8-3.3-4,11.9-4,30.8
						s14.8,34.1,33.1,34.1c7.7,0,14.8-2.7,20.4-7.3C41.9,51.4,37,41.6,37,30.8z"/>
					<path id="Shape_00000150813528550627726460000003816400207431809976_" class="st3" d="M103.2,30.8c0,18.8-14.8,34.1-33.1,34.1
						c-7.7,0-14.8-2.7-20.4-7.3c7.7-6.3,12.6-15.9,12.6-26.8S57.2,10.2,49.7,4c5.6-4.5,12.7-7.3,20.4-7.3
						C88.4-3.3,103.2,12,103.2,30.8z"/>
				</g>
				<path id="Shape_00000093856648185966774000000017050919692253980333_" class="st4" d="M11.6,86.6v-5.7c0-2.2-1.4-3.6-3.9-3.6
					c-1.2,0-2.6,0.4-3.5,1.6c-0.7-1-1.8-1.6-3.3-1.6c-1,0-2,0.3-2.9,1.3v-1.1H-4v9.1h2.2v-5c0-1.6,0.9-2.3,2.3-2.3s2.2,0.9,2.2,2.3
					v5h2.2v-5c0-1.6,1-2.3,2.3-2.3c1.4,0,2.2,0.9,2.2,2.3v5L11.6,86.6L11.6,86.6z M43.4,77.5h-3.5v-2.7h-2.2v2.7h-1.9v1.8h1.9v4.2
					c0,2.1,0.9,3.3,3.4,3.3c0.9,0,1.9-0.3,2.7-0.6l-0.6-1.7c-0.6,0.4-1.4,0.5-1.9,0.5c-1,0-1.4-0.6-1.4-1.5v-4.1h3.5L43.4,77.5
					L43.4,77.5z M61.6,77.3c-1.2,0-2,0.6-2.6,1.3v-1.1h-2.2v9.1H59v-5.1c0-1.5,0.7-2.3,2-2.3c0.4,0,0.9,0.1,1.4,0.2l0.6-1.9
					C62.6,77.3,62,77.3,61.6,77.3L61.6,77.3L61.6,77.3z M34.1,78.2c-1-0.6-2.4-1-4-1c-2.4,0-4.1,1.1-4.1,2.9c0,1.5,1.2,2.3,3.4,2.7
					l1,0.1c1.1,0.2,1.8,0.5,1.8,1c0,0.6-0.8,1.1-2.3,1.1c-1.4,0-2.6-0.5-3.3-1l-1,1.5c1.1,0.7,2.7,1.1,4.2,1.1
					c2.9,0,4.5-1.2,4.5-2.9c0-1.6-1.4-2.5-3.4-2.7l-1-0.1c-0.9-0.1-1.6-0.3-1.6-0.9c0-0.6,0.7-1,1.9-1c1.2,0,2.4,0.5,3.1,0.7
					L34.1,78.2L34.1,78.2z M91.1,77.3c-1.2,0-2,0.6-2.6,1.3v-1.1h-2.2v9.1h2.2v-5.1c0-1.5,0.7-2.3,2-2.3c0.4,0,0.9,0.1,1.4,0.2
					l0.6-1.9C92.1,77.3,91.5,77.3,91.1,77.3L91.1,77.3L91.1,77.3z M63.7,82c0,2.7,2,4.7,5.2,4.7c1.4,0,2.4-0.3,3.5-1l-1-1.6
					c-0.8,0.6-1.6,0.9-2.6,0.9c-1.8,0-3-1.1-3-2.9c0-1.7,1.2-2.8,3-2.9c0.9,0,1.8,0.3,2.6,0.9l1-1.6c-1-0.7-2-1-3.5-1
					C65.8,77.3,63.7,79.3,63.7,82L63.7,82L63.7,82z M83.5,82v-4.5h-2.2v1.1c-0.7-0.9-1.8-1.3-3.1-1.3c-2.7,0-4.9,2-4.9,4.7
					s2.2,4.7,4.9,4.7c1.4,0,2.4-0.5,3.1-1.3v1.1h2.2V82z M75.6,82c0-1.6,1.1-2.9,3-2.9c1.8,0,3,1.2,3,2.9c0,1.6-1.2,2.9-3,2.9
					C76.8,84.8,75.6,83.6,75.6,82L75.6,82z M50.1,77.3c-2.9,0-4.9,1.9-4.9,4.7c0,2.8,2,4.7,5,4.7c1.4,0,2.9-0.4,4-1.2l-1-1.4
					c-0.8,0.6-1.9,1-2.9,1c-1.4,0-2.7-0.6-3-2.2h7.2v-0.7C54.7,79.2,52.8,77.3,50.1,77.3L50.1,77.3L50.1,77.3z M50.1,79
					c1.4,0,2.3,0.7,2.4,2.2h-5.1C47.6,79.9,48.5,79,50.1,79L50.1,79z M103.2,82v-8.1h-2.2v4.7c-0.7-0.9-1.8-1.3-3.1-1.3
					c-2.7,0-4.9,2-4.9,4.7s2.2,4.7,4.9,4.7c1.4,0,2.4-0.5,3.1-1.3v1.1h2.2V82z M95.4,82c0-1.6,1.1-2.9,3-2.9c1.8,0,3,1.2,3,2.9
					c0,1.6-1.2,2.9-3,2.9C96.6,84.8,95.4,83.6,95.4,82L95.4,82z M23.7,82v-4.5h-2.2v1.1c-0.7-0.9-1.8-1.3-3.1-1.3
					c-2.7,0-4.9,2-4.9,4.7s2.2,4.7,4.9,4.7c1.4,0,2.4-0.5,3.1-1.3v1.1h2.2V82z M15.7,82c0-1.6,1.1-2.9,3-2.9c1.8,0,3,1.2,3,2.9
					c0,1.6-1.2,2.9-3,2.9C16.8,84.8,15.7,83.6,15.7,82z"/>
			</g>
		</g>
	</g>
</g>
</svg>
