<?xml version="1.0" encoding="UTF-8"?>
<svg xmlns="http://www.w3.org/2000/svg" id="Lager_1" viewBox="0 0 512.1 512.1">
  <defs>
    <style>.cls-1{fill:#fff;}.cls-1,.cls-2{stroke:#fff;stroke-miterlimit:10;stroke-width:8px;}</style>
  </defs>
  <path class="cls-2" d="m0,272v-32c.3-.5.9-1,.9-1.5.6-16.7,3.7-33.1,8.1-49.2,12.1-44.5,34.6-83,67.2-115.5,14.1-14.1,29.8-26.3,47-36.5C155.2,18.1,189.5,6,226.6,2c4.8-.5,9.6-1.3,14.4-2h31c.8.3,1.6.8,2.5,1,14.3,2.2,28.9,3.3,42.9,6.7,41.5,10,78.1,29.7,109.7,58.2,22.9,20.7,41.7,44.7,55.9,72.2,14.5,28.2,24,57.9,27.1,89.6.4,4.5,1.3,8.9,1.9,13.3v30c-.3.7-.9,1.3-1,2-.6,20.1-4.5,39.6-10.6,58.6-21.9,67.9-64.3,118.8-127.7,151.9-27.7,14.5-57.1,23.6-88.4,26.5-4.1.4-8.2,1.3-12.4,1.9h-31c-.7-.3-1.3-.9-2-1-20.1-.6-39.6-4.7-58.7-10.7-56.4-17.8-101.6-51-135.2-99.6C20.9,365.7,6.2,326.9,1.9,284.4c-.4-4.2-1.2-8.3-1.9-12.4Zm319.9-67.7c3.3,2.4,6.7,4.3,9.5,6.8,2.7,2.4,5.4,2.6,8.6,1.9,25.6-5.9,51.3-11.9,76.9-17.7,8.5-2,17.1-4.3,25.9-2,17.9,4.6,28.3,17.6,30.1,33.5,2.5,22-11.7,37.2-26.1,41.3-10,2.8-20.1,4.8-30.2,7.2-34.3,7.9-68.6,15.9-102.9,23.6-3.1.7-4.5,2-5.7,4.4-4.1,7.9-8.2,15.8-12.4,23.7-14.1,27.1-28.2,54.2-42.4,81.2-1.7,3.2-3.7,6.3-5.9,9.1-10.2,13.2-25.6,14.6-40.3,17.1-5.5,1-9.7-4.3-8.6-9.5,5.7-26.2,11.5-52.4,17.3-78.6,1.9-8.6,3.7-17.2,5.7-26.6-5,1.2-9.1,2.5-13.3,3-5.2.7-9,3.3-12.6,7-32.6,32.9-65.5,65.6-98.2,98.3-1.1,1.1-2.1,2.3-3.2,3.5,104.4,95.6,254.3,79.5,339-11.1,82.6-88.3,90.5-229.8,1-327.6-37.3,37-74.6,74.1-112.2,111.5Zm-98,34.6c-7.1-9.3-13.4-17.5-19.7-25.8-15.5-20.4-31.1-40.8-46.6-61.1-9.6-12.6-19.3-25.2-28.9-37.9-4.7-6.3-2.3-12.2,5.4-13.9,5-1.1,10-2.1,14.9-3.4,12.4-3.2,23.6-.6,33.8,6.8,13.4,9.7,26.8,19.4,40.2,29.1,28.4,20.5,56.7,41.1,84.7,61.3,38-38.1,75.8-76,113.6-113.9C317.5-13.4,168.1-.4,81.5,91,.6,176.3-11.9,319.1,80.1,419.4c29-29.2,65.1-62.4,93.9-91.4-.1,0-8,1.8-8.7,2-13.8,3.1-27.6,8.2-41.3,11.4-8.1,1.9-10.1,1.3-14.8-5.7-17.2-25.6-34.4-51.3-51.5-76.9-6-8.9-12.1-17.8-17.8-26.8-4-6.4-1.9-11.3,5.4-13.4,3.3-1,6.8-1.4,10-2.5,13-4.4,25.3-5.2,36,5.4,1,1,2.5,1.7,3.7,2.5,15.1,9.8,30.1,19.7,45.3,29.3,2.4,1.5,6,2.8,8.7,2.3,15.8-3.2,31.5-7,47.2-10.6,8.1-2,16.5-4,25.7-6.1Zm-162.8-6.8c.4,1,.6,1.6.9,2.2,19.7,29.4,39.4,58.7,59,88.1,1.8,2.7,4,3,6.8,2.3,17.3-4,34.7-7.7,51.9-11.9,6-1.5,12.3-1.9,17.4-7.1,31.6-32.2,63.7-64,95.6-95.9,1.3-1.3,2.5-2.6,3.9-4.1-3.9-3-7.4-5.8-11-8.5-36-26-72.1-52-108-78.1-9-6.6-18.1-10.3-29.4-5.5,5.2,6.7,10.3,13.4,15.4,20.1,15.6,20.5,31.3,41,46.9,61.5,11.1,14.6,22.2,29.2,33.1,44,3.9,5.2,1.7,11.3-4.4,12.7-29.5,6.7-59.1,13.3-88.6,20.1-4.3,1-7.9.7-11.7-1.7-19.2-12.5-38.8-24.5-57.7-37.6-7.2-5-13.2-2.6-20.1-.6Zm157.9,72c.2.3,4.4-1.4,4.6-1.2,11.5-2.6,23-5.3,34.6-7.9,35.1-8,70.2-16,105.3-23.9,24.2-5.5,48.5-10.8,72.7-16.1,15.1-3.3,22.6-12.9,20.9-27.4-1.6-13-14.2-20.7-25.3-19.3-6.5.8-12.8,2.9-19.2,4.4-25.3,5.8-50.6,11.7-76,17.1-2.8.6-6.6-.6-9.2-2.2-4.5-2.6-8.6-6.1-12.8-9.4-3-2.4-5.1-2.6-8.2.6-22.1,22.4-44.4,44.6-66.7,66.9-5.6,5.4-15.1,12.9-20.7,18.4Zm70.5.2c-16.4,3.7-32.1,7.2-47.7,10.9-1.5.4-3.3,2.6-3.7,4.3-5.7,25.2-11.3,50.4-16.8,75.6-1.5,6.8-2.9,13.7-4.4,20.7,13.5-2.7,17.3-5.6,23.2-16.8,13.6-26,27.3-52,41-78,2.7-5.4,5.4-10.8,8.4-16.7Z"></path>
  <path class="cls-1" d="m319.9,204.3c37.6-37.4,74.9-74.5,112.2-111.5,89.6,97.8,81.6,239.3-1,327.6-84.7,90.6-234.6,106.7-339,11.1,1.1-1.2,2.1-2.4,3.2-3.5,32.8-32.8,65.6-65.5,98.2-98.3,3.7-3.7,7.4-6.3,12.6-7,4.2-.5,8.2-1.8,13.3-3-2,9.4-3.8,18-5.7,26.6-5.7,26.2-11.5,52.4-17.3,78.6-1.1,5.2,3,10.5,8.6,9.5,14.7-2.5,30.1-4,40.3-17.1,2.2-2.9,4.2-5.9,5.9-9.1,14.2-27,28.3-54.1,42.4-81.2,4.1-7.9,8.3-15.8,12.4-23.7,1.2-2.4,2.6-3.8,5.7-4.4,34.4-7.7,68.6-15.7,102.9-23.6,10.1-2.3,20.3-4.4,30.2-7.2,14.4-4.1,28.5-19.3,26.1-41.3-1.8-15.9-12.2-28.9-30.1-33.5-8.8-2.3-17.4.1-25.9,2-25.6,5.9-51.3,11.8-76.9,17.7-3.1.7-5.9.5-8.6-1.9-2.9-2.5-6.2-4.4-9.5-6.8Z"></path>
  <path class="cls-1" d="m221.9,238.9c-9.2,2.2-17.6,4.2-26,6.1-15.7,3.6-31.4,7.4-47.2,10.6-2.7.5-6.2-.7-8.7-2.3-15.2-9.6-30.2-19.5-45.3-29.3-1.3-.8-2.7-1.5-3.7-2.5-10.7-10.7-23-9.8-36-5.4-3.3,1.1-6.7,1.6-10,2.5-7.3,2.1-9.4,7-5.4,13.4,5.8,9.1,11.9,17.9,17.8,26.8,17.2,25.6,34.4,51.3,51.5,76.9,4.7,7,6.7,7.6,14.8,5.7,13.8-3.3,27.6-6.3,41.3-9.4.8-.2,1.6,0,1.7,0-28.8,29-57.9,58.2-86.9,87.4C-12.2,319.1.3,176.4,81.2,91,167.8-.4,317.2-13.4,419,79.9c-37.8,37.9-75.6,75.8-113.6,113.9-28-20.3-56.3-40.8-84.7-61.3-13.4-9.7-26.8-19.4-40.2-29.1-10.2-7.3-21.4-10-33.8-6.8-4.9,1.3-9.9,2.2-14.9,3.4-7.7,1.7-10.1,7.6-5.4,13.9,9.5,12.7,19.2,25.3,28.9,37.9,15.5,20.4,31.1,40.8,46.6,61.1,6.6,8.4,12.9,16.7,20,26Z"></path>
  <path class="cls-1" d="m59.1,232.1c6.9-2.1,13-4.4,20.3.6,18.9,13,38.4,25,57.7,37.6,3.7,2.4,7.4,2.7,11.7,1.7,29.5-6.8,59.1-13.4,88.6-20.1,6.1-1.4,8.3-7.5,4.4-12.7-10.9-14.7-22-29.4-33.1-44-15.6-20.5-31.3-41-46.9-61.5-5.1-6.7-10.2-13.4-15.4-20.1,11.2-4.8,20.4-1.1,29.4,5.5,35.9,26.2,72,52.1,108,78.1,3.6,2.6,7.1,5.4,11,8.5-1.4,1.5-2.6,2.8-3.9,4.1-31.9,31.9-64,63.7-95.6,95.9-5.1,5.2-11.4,5.6-17.4,7.1-17.2,4.2-34.6,7.9-51.9,11.9-2.9.7-5,.3-6.8-2.3-19.6-29.4-39.3-58.7-59-88.1-.6-.5-.7-1.2-1.1-2.2Z"></path>
  <path class="cls-1" d="m221,302.1c5.5-5.5,11.1-11,16.6-16.5,22.3-22.3,44.6-44.4,66.7-66.9,3.1-3.2,5.2-3,8.2-.6,4.2,3.3,8.2,6.7,12.8,9.4,2.6,1.5,6.4,2.8,9.2,2.2,25.4-5.4,50.7-11.3,76-17.1,6.4-1.5,12.7-3.6,19.2-4.4,11.1-1.3,23.7,6.3,25.3,19.3,1.8,14.5-5.8,24.1-20.9,27.4-24.3,5.3-48.5,10.7-72.7,16.1-35.1,7.9-70.2,15.9-105.3,23.9-11.5,2.6-23,5.3-34.6,7.9-.1-.2-.3-.4-.5-.7Z"></path>
  <path class="cls-1" d="m287.5,304.3c-3,6-5.7,11.4-8.5,16.7-13.6,26-27.4,52-41,78-5.9,11.2-9.6,14.1-23.2,16.8,1.5-7.1,2.9-13.9,4.4-20.7,5.5-25.2,11.1-50.4,16.8-75.6.4-1.7,2.2-3.9,3.7-4.3,15.7-3.8,31.4-7.2,47.8-10.9Z"></path>
</svg>
