<?xml version="1.0" encoding="utf-8"?>
<!-- Generator: Adobe Illustrator 27.0.0, SVG Export Plug-In . SVG Version: 6.00 Build 0)  -->
<svg version="1.1" id="Lager_1" xmlns="http://www.w3.org/2000/svg" xmlns:xlink="http://www.w3.org/1999/xlink" x="0px" y="0px"
	 viewBox="0 0 578 176" style="enable-background:new 0 0 578 176;" xml:space="preserve">
<style type="text/css">
	.st0{fill:#FFFFFF;}
	.st1{fill-rule:evenodd;clip-rule:evenodd;fill:url(#SVGID_1_);}
	.st2{fill-rule:evenodd;clip-rule:evenodd;fill:url(#SVGID_00000128451855585342976610000010319475283945211582_);}
	.st3{fill-rule:evenodd;clip-rule:evenodd;fill:url(#SVGID_00000168095156822623904960000008557100298829244330_);}
	.st4{fill-rule:evenodd;clip-rule:evenodd;fill:url(#SVGID_00000017489185233630393020000005826877766645800358_);}
</style>
<g>
	<path class="st0" d="M549.1,48.9c0-2,0.4-3.9,1.1-5.7s1.8-3.3,3-4.6c1.3-1.3,2.8-2.4,4.5-3.1s3.6-1.1,5.5-1.1c2,0,3.9,0.4,5.6,1.1
		c1.7,0.8,3.3,1.8,4.6,3.1c1.3,1.3,2.3,2.9,3.1,4.6c0.7,1.8,1.1,3.7,1.1,5.7s-0.4,3.9-1.1,5.7c-0.7,1.8-1.8,3.3-3.1,4.6
		c-1.3,1.3-2.8,2.4-4.6,3.1c-1.7,0.8-3.6,1.1-5.6,1.1c-2,0-3.8-0.4-5.5-1.1s-3.2-1.8-4.5-3.1c-1.3-1.3-2.3-2.9-3-4.6
		C549.4,52.8,549.1,50.9,549.1,48.9z M552,48.9c0,1.7,0.3,3.2,0.9,4.7c0.6,1.4,1.4,2.7,2.4,3.8c1,1.1,2.2,1.9,3.6,2.5
		c1.4,0.6,2.9,0.9,4.5,0.9c1.6,0,3.1-0.3,4.5-0.9c1.4-0.6,2.6-1.5,3.6-2.5s1.8-2.3,2.4-3.8c0.6-1.4,0.9-3,0.9-4.7
		c0-1.7-0.3-3.2-0.9-4.7c-0.6-1.4-1.4-2.7-2.4-3.8c-1-1.1-2.2-1.9-3.6-2.5c-1.4-0.6-2.9-0.9-4.5-0.9c-1.6,0-3.1,0.3-4.5,0.9
		c-1.4,0.6-2.6,1.5-3.6,2.5c-1,1.1-1.8,2.3-2.4,3.8C552.3,45.7,552,47.2,552,48.9z M558.4,42.6c0-0.9,0.4-1.3,1.3-1.3h4.5
		c1.4,0,2.6,0.4,3.4,1.2c0.9,0.8,1.3,1.9,1.3,3.4c0,0.6-0.1,1.1-0.3,1.6s-0.4,0.8-0.7,1.2c-0.3,0.3-0.6,0.6-0.9,0.8
		c-0.3,0.2-0.6,0.4-1,0.4V50c0,0,0.1,0.1,0.1,0.2c0.1,0.1,0.1,0.1,0.2,0.3c0.1,0.1,0.1,0.3,0.2,0.4l2.1,4c0.2,0.5,0.3,0.8,0.2,1.1
		c-0.1,0.3-0.4,0.4-0.9,0.4h-0.5c-0.7,0-1.3-0.3-1.6-1l-2.3-4.9h-2.5v4.6c0,0.9-0.4,1.3-1.2,1.3h-0.4c-0.8,0-1.2-0.4-1.2-1.3
		L558.4,42.6z M563.6,48.5c0.8,0,1.4-0.2,1.8-0.7c0.4-0.5,0.6-1.1,0.6-1.9c0-0.8-0.2-1.4-0.6-1.8c-0.4-0.4-1-0.6-1.8-0.6h-2.4v5
		H563.6z M447,58c4.5,0,8.4,0.6,11.5,1.7c3.1,1.2,5.6,2.2,7.4,3.2c1.5,0.8,2.4,1.9,2.7,3.2c0.3,1.3,0,2.8-0.7,4.3l-1.3,2.4
		c-0.8,1.6-1.8,2.5-3.1,2.8c-1.2,0.3-2.7,0-4.4-0.7c-1.5-0.7-3.3-1.4-5.5-2.2c-2.1-0.8-4.6-1.1-7.4-1.1c-2.9,0-5.2,0.6-6.8,1.7
		c-1.6,1.2-2.4,2.8-2.4,4.9c0,1.9,0.8,3.4,2.5,4.5c1.6,1.2,3.7,2.2,6.3,3.1c2.5,0.9,5.2,1.8,8.1,2.9c2.9,1,5.6,2.3,8.1,3.9
		s4.6,3.6,6.3,6.1s2.5,5.6,2.5,9.5c0,3-0.6,5.8-1.8,8.3c-1.2,2.5-2.9,4.7-5.2,6.6c-2.3,1.9-5,3.3-8.2,4.4s-6.7,1.6-10.6,1.6
		c-5.5,0-10.1-0.8-13.9-2.4c-3.8-1.6-6.7-3.1-8.7-4.5c-1.5-0.9-2.3-2-2.5-3.3c-0.2-1.3,0.2-2.8,1.2-4.3l1.6-2.4
		c1-1.4,2.1-2.2,3.3-2.4s2.6,0.2,4.3,1.1c1.6,0.9,3.7,1.9,6.2,3c2.5,1.1,5.5,1.7,9,1.7c2.9,0,5.2-0.6,6.9-1.9
		c1.7-1.2,2.5-2.9,2.5-5.1c0-1.9-0.8-3.4-2.5-4.5c-1.6-1.1-3.7-2.1-6.3-3.1s-5.2-1.9-8.1-3c-2.9-1.1-5.6-2.4-8.1-4s-4.6-3.6-6.3-6.1
		c-1.6-2.5-2.5-5.7-2.5-9.6c0-3.3,0.7-6.2,2.1-8.8s3.2-4.7,5.6-6.4c2.3-1.7,5.1-3,8.2-3.9C440.1,58.5,443.5,58,447,58L447,58z
		 M249.3,58c4.5,0,8.4,0.6,11.5,1.7c3.1,1.2,5.6,2.2,7.4,3.2c1.5,0.8,2.4,1.9,2.7,3.2c0.3,1.3,0,2.8-0.7,4.3l-1.3,2.4
		c-0.8,1.6-1.8,2.5-3.1,2.8c-1.2,0.3-2.7,0-4.4-0.7c-1.5-0.7-3.3-1.4-5.5-2.2c-2.1-0.8-4.6-1.1-7.4-1.1c-2.9,0-5.2,0.6-6.8,1.7
		s-2.4,2.8-2.4,4.9c0,1.9,0.8,3.4,2.5,4.5c1.6,1.2,3.7,2.2,6.3,3.1c2.5,0.9,5.2,1.8,8.1,2.9c2.9,1,5.6,2.3,8.1,3.9s4.6,3.6,6.3,6.1
		c1.6,2.5,2.5,5.6,2.5,9.5c0,3-0.6,5.8-1.8,8.3c-1.2,2.5-2.9,4.7-5.2,6.6c-2.3,1.9-5,3.3-8.2,4.4s-6.7,1.6-10.6,1.6
		c-5.5,0-10.1-0.8-13.9-2.4s-6.7-3.1-8.7-4.5c-1.5-0.9-2.3-2-2.5-3.3c-0.2-1.3,0.2-2.8,1.2-4.3l1.6-2.4c1-1.4,2.1-2.2,3.3-2.4
		c1.2-0.2,2.6,0.2,4.3,1.1c1.6,0.9,3.7,1.9,6.2,3c2.5,1.1,5.5,1.7,9,1.7c2.9,0,5.2-0.6,6.9-1.9c1.7-1.2,2.5-2.9,2.5-5.1
		c0-1.9-0.8-3.4-2.5-4.5c-1.6-1.1-3.7-2.1-6.3-3.1c-2.5-0.9-5.2-1.9-8.1-3c-2.9-1.1-5.6-2.4-8.1-4s-4.6-3.6-6.3-6.1
		c-1.6-2.5-2.5-5.7-2.5-9.6c0-3.3,0.7-6.2,2.1-8.8s3.2-4.7,5.6-6.4c2.3-1.7,5.1-3,8.2-3.9C242.4,58.5,245.8,58,249.3,58L249.3,58z
		 M491.8,33c3.7,0,5.6,1.9,5.6,5.6V66c0,0.9,0,1.7-0.1,2.3c0,0.7-0.1,1.3-0.2,1.8c-0.1,0.6-0.1,1.2-0.1,1.6h0.3
		c0.8-1.6,1.9-3.2,3.4-4.9c1.5-1.6,3.2-3.1,5.2-4.5s4.3-2.4,6.8-3.2s5.3-1.2,8.2-1.2c7.5,0,13.4,2,17.5,6.1
		c4.1,4.1,6.2,10.7,6.2,19.7V122c0,3.7-1.9,5.6-5.6,5.6h-5.7c-3.7,0-5.6-1.9-5.6-5.6V87.3c0-4.2-0.7-7.5-2.1-10.1
		c-1.4-2.5-4.3-3.8-8.5-3.8c-2.9,0-5.6,0.6-8,1.7c-2.4,1.2-4.5,2.7-6.2,4.7c-1.7,2-3,4.4-3.9,7.1s-1.4,5.7-1.4,8.9v26
		c0,3.7-1.9,5.6-5.6,5.6h-5.7c-3.7,0-5.6-1.9-5.6-5.6V38.6c0-3.7,1.9-5.6,5.6-5.6H491.8z M403.5,59.6c3.6,0,5.5,1.9,5.5,5.6V122
		c0,3.7-1.8,5.6-5.5,5.6h-5.9c-3.6,0-5.5-1.9-5.5-5.6V65.2c0-3.7,1.8-5.6,5.5-5.6H403.5z M290.6,59.6c3.4,0,5.4,1.6,6,4.9l10.9,39.7
		c0.2,1,0.3,1.9,0.5,2.7s0.3,1.6,0.5,2.3c0.2,0.8,0.3,1.6,0.4,2.3h0.3c0.1-0.7,0.2-1.5,0.4-2.3c0.2-0.7,0.3-1.5,0.5-2.3
		s0.3-1.7,0.6-2.7L322,64.6c0.6-3.2,2.7-4.8,6.1-4.8h5.1c3.3,0,5.3,1.6,6.1,4.8l11.3,39.7c0.3,1,0.5,1.9,0.6,2.7s0.3,1.6,0.5,2.3
		c0.2,0.8,0.3,1.6,0.4,2.3h0.3c0.1-0.7,0.2-1.5,0.4-2.3c0.2-0.7,0.3-1.5,0.5-2.3s0.3-1.7,0.6-2.7l10.8-39.7c0.8-3.3,2.8-4.9,6.1-4.9
		h6.1c2,0,3.5,0.6,4.3,1.7c0.8,1.2,0.9,2.7,0.4,4.5l-17.4,57c-0.9,3.1-3,4.7-6.3,4.7h-8.9c-3.4,0-5.5-1.6-6.3-4.8l-10.2-34
		c-0.3-0.9-0.5-1.8-0.7-2.7c-0.2-0.9-0.4-1.7-0.5-2.4c-0.2-0.8-0.3-1.6-0.4-2.3h-0.3c-0.2,0.7-0.4,1.5-0.5,2.3
		c-0.2,0.7-0.4,1.5-0.5,2.4c-0.2,0.9-0.4,1.8-0.7,2.7l-10.2,34c-0.8,3.2-2.8,4.8-6.1,4.8h-9.2c-3.2,0-5.2-1.6-6.1-4.7l-17.6-57
		c-0.5-1.9-0.4-3.4,0.5-4.5c0.8-1.2,2.2-1.7,4.2-1.7L290.6,59.6z"/>
	<g transform="translate(50.005869 20.581194)">
		
			<linearGradient id="SVGID_1_" gradientUnits="userSpaceOnUse" x1="-179.4375" y1="363.6375" x2="-179.6469" y2="364.1523" gradientTransform="matrix(125.8213 0 0 -155.2459 22643.3887 56563.5586)">
			<stop  offset="0" style="stop-color:#EF2131"/>
			<stop  offset="1" style="stop-color:#FECF2C"/>
		</linearGradient>
		<path class="st1" d="M0,146.7c35.3,16.9,78.9,8.5,105.2-22.8C136.5,86.6,131.6,31.2,94.4,0L69.7,29.5
			c29.1,24.4,32.8,67.7,8.5,96.7C58.7,149.4,26.7,157.1,0,146.7"/>
		
			<linearGradient id="SVGID_00000176750737155094253290000012675904001115119011_" gradientUnits="userSpaceOnUse" x1="-179.0213" y1="363.8985" x2="-179.517" y2="362.9578" gradientTransform="matrix(114.7486 0 0 -125.7808 20639.166 45817.7812)">
			<stop  offset="0" style="stop-color:#FBC52C"/>
			<stop  offset="0.2639" style="stop-color:#F87130"/>
			<stop  offset="0.5608" style="stop-color:#EF52E2"/>
			<stop  offset="1" style="stop-color:#661EEC"/>
		</linearGradient>
		<path style="fill-rule:evenodd;clip-rule:evenodd;fill:url(#SVGID_00000176750737155094253290000012675904001115119011_);" d="
			M0,146.7c35.3,16.9,78.9,8.5,105.2-22.8c3.2-3.8,6.1-7.9,8.5-12.1c4.2-25.8-5-53.2-26.5-71.2c-5.5-4.6-11.4-8.3-17.6-11.1
			c29.1,24.4,32.8,67.7,8.5,96.7C58.7,149.4,26.7,157.1,0,146.7"/>
	</g>
	
		<linearGradient id="SVGID_00000111912645868525981920000000355130523836553915_" gradientUnits="userSpaceOnUse" x1="-129.4803" y1="384.6279" x2="-129.28" y2="384.1253" gradientTransform="matrix(125.8211 0 0 -155.246 16351.5664 59758.7227)">
		<stop  offset="0" style="stop-color:#78F6D8"/>
		<stop  offset="0.2657" style="stop-color:#77D1F6"/>
		<stop  offset="0.5545" style="stop-color:#70A4F3"/>
		<stop  offset="1" style="stop-color:#661EEC"/>
	</linearGradient>
	<path style="fill-rule:evenodd;clip-rule:evenodd;fill:url(#SVGID_00000111912645868525981920000000355130523836553915_);" d="
		M125.8,8.6C90.5-8.3,46.9,0,20.6,31.4C-10.6,68.6-5.8,124,31.4,155.2l24.7-29.5C27.1,101.4,23.3,58.1,47.7,29
		C67.1,5.9,99.1-1.9,125.8,8.6"/>
	
		<linearGradient id="SVGID_00000126289940901260996330000014652700669214036619_" gradientUnits="userSpaceOnUse" x1="-129.6977" y1="383.7523" x2="-129.2059" y2="384.6895" gradientTransform="matrix(114.7485 0 0 -125.7806 14912.1221 48376.9883)">
		<stop  offset="0" style="stop-color:#536EED"/>
		<stop  offset="0.2467" style="stop-color:#54C3EC"/>
		<stop  offset="0.5642" style="stop-color:#64D769"/>
		<stop  offset="1" style="stop-color:#FECF2C"/>
	</linearGradient>
	<path style="fill-rule:evenodd;clip-rule:evenodd;fill:url(#SVGID_00000126289940901260996330000014652700669214036619_);" d="
		M125.8,8.6C90.5-8.3,46.9,0,20.6,31.4c-3.2,3.8-6.1,7.9-8.5,12.1c-4.2,25.8,5,53.2,26.5,71.2c5.5,4.6,11.4,8.3,17.6,11.1
		C27.1,101.4,23.3,58.1,47.7,29C67.1,5.9,99.1-1.9,125.8,8.6"/>
</g>
</svg>
